<?xml version="1.0" encoding="utf-8" standalone="no"?>
<!DOCTYPE svg PUBLIC "-//W3C//DTD SVG 1.1//EN"
  "http://www.w3.org/Graphics/SVG/1.1/DTD/svg11.dtd">
<!-- Created with matplotlib (http://matplotlib.org/) -->
<svg height="345pt" version="1.1" viewBox="0 0 604 345" width="604pt" xmlns="http://www.w3.org/2000/svg" xmlns:xlink="http://www.w3.org/1999/xlink">
 <defs>
  <style type="text/css">
*{stroke-linecap:butt;stroke-linejoin:round;}
  </style>
 </defs>
 <g id="figure_1">
  <g id="patch_1">
   <path d="M 0 345.6 
L 604.08 345.6 
L 604.08 0 
L 0 0 
z
" style="fill:#ffffff;"/>
  </g>
  <g id="axes_1">
   <g id="patch_2">
    <path d="M 53.216571 158.362597 
L 585.382286 158.362597 
L 585.382286 30.445714 
L 53.216571 30.445714 
z
" style="fill:#ffffff;"/>
   </g>
   <g id="patch_3">
    <path clip-path="url(#pce0e461b59)" d="M 77.405922 158.362597 
L 83.529808 158.362597 
L 83.529808 64.046002 
L 77.405922 64.046002 
z
" style="fill:#ff0000;"/>
   </g>
   <g id="patch_4">
    <path clip-path="url(#pce0e461b59)" d="M 101.901467 158.362597 
L 108.025353 158.362597 
L 108.025353 116.44411 
L 101.901467 116.44411 
z
" style="fill:#ff0000;"/>
   </g>
   <g id="patch_5">
    <path clip-path="url(#pce0e461b59)" d="M 126.397012 158.362597 
L 132.520898 158.362597 
L 132.520898 117.941199 
L 126.397012 117.941199 
z
" style="fill:#ff0000;"/>
   </g>
   <g id="patch_6">
    <path clip-path="url(#pce0e461b59)" d="M 150.892557 158.362597 
L 157.016443 158.362597 
L 157.016443 108.060413 
L 150.892557 108.060413 
z
" style="fill:#ff0000;"/>
   </g>
   <g id="patch_7">
    <path clip-path="url(#pce0e461b59)" d="M 175.388102 158.362597 
L 181.511988 158.362597 
L 181.511988 69.940789 
L 175.388102 69.940789 
z
" style="fill:#ff0000;"/>
   </g>
   <g id="patch_8">
    <path clip-path="url(#pce0e461b59)" d="M 199.883647 158.362597 
L 206.007533 158.362597 
L 206.007533 40.004516 
L 199.883647 40.004516 
z
" style="fill:#ff0000;"/>
   </g>
   <g id="patch_9">
    <path clip-path="url(#pce0e461b59)" d="M 224.379192 158.362597 
L 230.503078 158.362597 
L 230.503078 49.952717 
L 224.379192 49.952717 
z
" style="fill:#ff0000;"/>
   </g>
   <g id="patch_10">
    <path clip-path="url(#pce0e461b59)" d="M 248.874737 158.362597 
L 254.998623 158.362597 
L 254.998623 78.336395 
L 248.874737 78.336395 
z
" style="fill:#ff0000;"/>
   </g>
   <g id="patch_11">
    <path clip-path="url(#pce0e461b59)" d="M 273.370282 158.362597 
L 279.494168 158.362597 
L 279.494168 57.758228 
L 273.370282 57.758228 
z
" style="fill:#ff0000;"/>
   </g>
   <g id="patch_12">
    <path clip-path="url(#pce0e461b59)" d="M 297.865827 158.362597 
L 303.989713 158.362597 
L 303.989713 111.204299 
L 297.865827 111.204299 
z
" style="fill:#ff0000;"/>
   </g>
   <g id="patch_13">
    <path clip-path="url(#pce0e461b59)" d="M 322.361372 158.362597 
L 328.485258 158.362597 
L 328.485258 81.512038 
L 322.361372 81.512038 
z
" style="fill:#ff0000;"/>
   </g>
   <g id="patch_14">
    <path clip-path="url(#pce0e461b59)" d="M 346.856917 158.362597 
L 352.980803 158.362597 
L 352.980803 89.76871 
L 346.856917 89.76871 
z
" style="fill:#ff0000;"/>
   </g>
   <g id="patch_15">
    <path clip-path="url(#pce0e461b59)" d="M 371.352462 158.362597 
L 377.476348 158.362597 
L 377.476348 92.751052 
L 371.352462 92.751052 
z
" style="fill:#ff0000;"/>
   </g>
   <g id="patch_16">
    <path clip-path="url(#pce0e461b59)" d="M 395.848007 158.362597 
L 401.971893 158.362597 
L 401.971893 47.401896 
L 395.848007 47.401896 
z
" style="fill:#ff0000;"/>
   </g>
   <g id="patch_17">
    <path clip-path="url(#pce0e461b59)" d="M 420.343552 158.362597 
L 426.467438 158.362597 
L 426.467438 108.822567 
L 420.343552 108.822567 
z
" style="fill:#ff0000;"/>
   </g>
   <g id="patch_18">
    <path clip-path="url(#pce0e461b59)" d="M 444.839096 158.362597 
L 450.962983 158.362597 
L 450.962983 61.627627 
L 444.839096 61.627627 
z
" style="fill:#ff0000;"/>
   </g>
   <g id="patch_19">
    <path clip-path="url(#pce0e461b59)" d="M 469.334641 158.362597 
L 475.458528 158.362597 
L 475.458528 51.010374 
L 469.334641 51.010374 
z
" style="fill:#ff0000;"/>
   </g>
   <g id="patch_20">
    <path clip-path="url(#pce0e461b59)" d="M 493.830186 158.362597 
L 499.954073 158.362597 
L 499.954073 123.430525 
L 493.830186 123.430525 
z
" style="fill:#ff0000;"/>
   </g>
   <g id="patch_21">
    <path clip-path="url(#pce0e461b59)" d="M 518.325731 158.362597 
L 524.449618 158.362597 
L 524.449618 56.790879 
L 518.325731 56.790879 
z
" style="fill:#ff0000;"/>
   </g>
   <g id="patch_22">
    <path clip-path="url(#pce0e461b59)" d="M 542.821276 158.362597 
L 548.945163 158.362597 
L 548.945163 58.223989 
L 542.821276 58.223989 
z
" style="fill:#ff0000;"/>
   </g>
   <g id="patch_23">
    <path clip-path="url(#pce0e461b59)" d="M 83.529808 158.362597 
L 89.653695 158.362597 
L 89.653695 95.484867 
L 83.529808 95.484867 
z
" style="fill:#0000ff;"/>
   </g>
   <g id="patch_24">
    <path clip-path="url(#pce0e461b59)" d="M 108.025353 158.362597 
L 114.14924 158.362597 
L 114.14924 80.592773 
L 108.025353 80.592773 
z
" style="fill:#0000ff;"/>
   </g>
   <g id="patch_25">
    <path clip-path="url(#pce0e461b59)" d="M 132.520898 158.362597 
L 138.644784 158.362597 
L 138.644784 89.068772 
L 132.520898 89.068772 
z
" style="fill:#0000ff;"/>
   </g>
   <g id="patch_26">
    <path clip-path="url(#pce0e461b59)" d="M 157.016443 158.362597 
L 163.140329 158.362597 
L 163.140329 102.471281 
L 157.016443 102.471281 
z
" style="fill:#0000ff;"/>
   </g>
   <g id="patch_27">
    <path clip-path="url(#pce0e461b59)" d="M 181.511988 158.362597 
L 187.635874 158.362597 
L 187.635874 64.046002 
L 181.511988 64.046002 
z
" style="fill:#0000ff;"/>
   </g>
   <g id="patch_28">
    <path clip-path="url(#pce0e461b59)" d="M 206.007533 158.362597 
L 212.131419 158.362597 
L 212.131419 46.409565 
L 206.007533 46.409565 
z
" style="fill:#0000ff;"/>
   </g>
   <g id="patch_29">
    <path clip-path="url(#pce0e461b59)" d="M 230.503078 158.362597 
L 236.626964 158.362597 
L 236.626964 51.470455 
L 230.503078 51.470455 
z
" style="fill:#0000ff;"/>
   </g>
   <g id="patch_30">
    <path clip-path="url(#pce0e461b59)" d="M 254.998623 158.362597 
L 261.122509 158.362597 
L 261.122509 61.852592 
L 254.998623 61.852592 
z
" style="fill:#0000ff;"/>
   </g>
   <g id="patch_31">
    <path clip-path="url(#pce0e461b59)" d="M 279.494168 158.362597 
L 285.618054 158.362597 
L 285.618054 55.001944 
L 279.494168 55.001944 
z
" style="fill:#0000ff;"/>
   </g>
   <g id="patch_32">
    <path clip-path="url(#pce0e461b59)" d="M 303.989713 158.362597 
L 310.113599 158.362597 
L 310.113599 103.68631 
L 303.989713 103.68631 
z
" style="fill:#0000ff;"/>
   </g>
   <g id="patch_33">
    <path clip-path="url(#pce0e461b59)" d="M 328.485258 158.362597 
L 334.609144 158.362597 
L 334.609144 83.935896 
L 328.485258 83.935896 
z
" style="fill:#0000ff;"/>
   </g>
   <g id="patch_34">
    <path clip-path="url(#pce0e461b59)" d="M 352.980803 158.362597 
L 359.104689 158.362597 
L 359.104689 79.765434 
L 352.980803 79.765434 
z
" style="fill:#0000ff;"/>
   </g>
   <g id="patch_35">
    <path clip-path="url(#pce0e461b59)" d="M 377.476348 158.362597 
L 383.600234 158.362597 
L 383.600234 55.471766 
L 377.476348 55.471766 
z
" style="fill:#0000ff;"/>
   </g>
   <g id="patch_36">
    <path clip-path="url(#pce0e461b59)" d="M 401.971893 158.362597 
L 408.095779 158.362597 
L 408.095779 70.170456 
L 401.971893 70.170456 
z
" style="fill:#0000ff;"/>
   </g>
   <g id="patch_37">
    <path clip-path="url(#pce0e461b59)" d="M 426.467438 158.362597 
L 432.591324 158.362597 
L 432.591324 97.390253 
L 426.467438 97.390253 
z
" style="fill:#0000ff;"/>
   </g>
   <g id="patch_38">
    <path clip-path="url(#pce0e461b59)" d="M 450.962983 158.362597 
L 457.086869 158.362597 
L 457.086869 52.303775 
L 450.962983 52.303775 
z
" style="fill:#0000ff;"/>
   </g>
   <g id="patch_39">
    <path clip-path="url(#pce0e461b59)" d="M 475.458528 158.362597 
L 481.582414 158.362597 
L 481.582414 55.632784 
L 475.458528 55.632784 
z
" style="fill:#0000ff;"/>
   </g>
   <g id="patch_40">
    <path clip-path="url(#pce0e461b59)" d="M 499.954073 158.362597 
L 506.077959 158.362597 
L 506.077959 91.384145 
L 499.954073 91.384145 
z
" style="fill:#0000ff;"/>
   </g>
   <g id="patch_41">
    <path clip-path="url(#pce0e461b59)" d="M 524.449618 158.362597 
L 530.573504 158.362597 
L 530.573504 61.496904 
L 524.449618 61.496904 
z
" style="fill:#0000ff;"/>
   </g>
   <g id="patch_42">
    <path clip-path="url(#pce0e461b59)" d="M 548.945163 158.362597 
L 555.069049 158.362597 
L 555.069049 59.758884 
L 548.945163 59.758884 
z
" style="fill:#0000ff;"/>
   </g>
   <g id="patch_43">
    <path clip-path="url(#pce0e461b59)" d="M 89.653695 158.362597 
L 95.777581 158.362597 
L 95.777581 51.840324 
L 89.653695 51.840324 
z
" style="fill:#ffa500;"/>
   </g>
   <g id="patch_44">
    <path clip-path="url(#pce0e461b59)" d="M 114.14924 158.362597 
L 120.273126 158.362597 
L 120.273126 68.860963 
L 114.14924 68.860963 
z
" style="fill:#ffa500;"/>
   </g>
   <g id="patch_45">
    <path clip-path="url(#pce0e461b59)" d="M 138.644784 158.362597 
L 144.768671 158.362597 
L 144.768671 55.471766 
L 138.644784 55.471766 
z
" style="fill:#ffa500;"/>
   </g>
   <g id="patch_46">
    <path clip-path="url(#pce0e461b59)" d="M 163.140329 158.362597 
L 169.264216 158.362597 
L 169.264216 80.347635 
L 163.140329 80.347635 
z
" style="fill:#ffa500;"/>
   </g>
   <g id="patch_47">
    <path clip-path="url(#pce0e461b59)" d="M 187.635874 158.362597 
L 193.759761 158.362597 
L 193.759761 42.47031 
L 187.635874 42.47031 
z
" style="fill:#ffa500;"/>
   </g>
   <g id="patch_48">
    <path clip-path="url(#pce0e461b59)" d="M 212.131419 158.362597 
L 218.255306 158.362597 
L 218.255306 49.804464 
L 212.131419 49.804464 
z
" style="fill:#ffa500;"/>
   </g>
   <g id="patch_49">
    <path clip-path="url(#pce0e461b59)" d="M 236.626964 158.362597 
L 242.750851 158.362597 
L 242.750851 48.90877 
L 236.626964 48.90877 
z
" style="fill:#ffa500;"/>
   </g>
   <g id="patch_50">
    <path clip-path="url(#pce0e461b59)" d="M 261.122509 158.362597 
L 267.246396 158.362597 
L 267.246396 64.561393 
L 261.122509 64.561393 
z
" style="fill:#ffa500;"/>
   </g>
   <g id="patch_51">
    <path clip-path="url(#pce0e461b59)" d="M 285.618054 158.362597 
L 291.74194 158.362597 
L 291.74194 40.834129 
L 285.618054 40.834129 
z
" style="fill:#ffa500;"/>
   </g>
   <g id="patch_52">
    <path clip-path="url(#pce0e461b59)" d="M 310.113599 158.362597 
L 316.237485 158.362597 
L 316.237485 84.749645 
L 310.113599 84.749645 
z
" style="fill:#ffa500;"/>
   </g>
   <g id="patch_53">
    <path clip-path="url(#pce0e461b59)" d="M 334.609144 158.362597 
L 340.73303 158.362597 
L 340.73303 61.187923 
L 334.609144 61.187923 
z
" style="fill:#ffa500;"/>
   </g>
   <g id="patch_54">
    <path clip-path="url(#pce0e461b59)" d="M 359.104689 158.362597 
L 365.228575 158.362597 
L 365.228575 52.303775 
L 359.104689 52.303775 
z
" style="fill:#ffa500;"/>
   </g>
   <g id="patch_55">
    <path clip-path="url(#pce0e461b59)" d="M 383.600234 158.362597 
L 389.72412 158.362597 
L 389.72412 43.19707 
L 383.600234 43.19707 
z
" style="fill:#ffa500;"/>
   </g>
   <g id="patch_56">
    <path clip-path="url(#pce0e461b59)" d="M 408.095779 158.362597 
L 414.219665 158.362597 
L 414.219665 57.26507 
L 408.095779 57.26507 
z
" style="fill:#ffa500;"/>
   </g>
   <g id="patch_57">
    <path clip-path="url(#pce0e461b59)" d="M 432.591324 158.362597 
L 438.71521 158.362597 
L 438.71521 87.423619 
L 432.591324 87.423619 
z
" style="fill:#ffa500;"/>
   </g>
   <g id="patch_58">
    <path clip-path="url(#pce0e461b59)" d="M 457.086869 158.362597 
L 463.210755 158.362597 
L 463.210755 36.536994 
L 457.086869 36.536994 
z
" style="fill:#ffa500;"/>
   </g>
   <g id="patch_59">
    <path clip-path="url(#pce0e461b59)" d="M 481.582414 158.362597 
L 487.7063 158.362597 
L 487.7063 43.48982 
L 481.582414 43.48982 
z
" style="fill:#ffa500;"/>
   </g>
   <g id="patch_60">
    <path clip-path="url(#pce0e461b59)" d="M 506.077959 158.362597 
L 512.201845 158.362597 
L 512.201845 63.707949 
L 506.077959 63.707949 
z
" style="fill:#ffa500;"/>
   </g>
   <g id="patch_61">
    <path clip-path="url(#pce0e461b59)" d="M 530.573504 158.362597 
L 536.69739 158.362597 
L 536.69739 44.305319 
L 530.573504 44.305319 
z
" style="fill:#ffa500;"/>
   </g>
   <g id="patch_62">
    <path clip-path="url(#pce0e461b59)" d="M 555.069049 158.362597 
L 561.192935 158.362597 
L 561.192935 43.284487 
L 555.069049 43.284487 
z
" style="fill:#ffa500;"/>
   </g>
   <g id="matplotlib.axis_1">
    <g id="xtick_1">
     <g id="line2d_1">
      <defs>
       <path d="M 0 0 
L 0 3.5 
" id="mb4752357fa" style="stroke:#000000;stroke-width:0.8;"/>
      </defs>
      <g>
       <use style="stroke:#000000;stroke-width:0.8;" x="86.591751" xlink:href="#mb4752357fa" y="158.362597"/>
      </g>
     </g>
     <g id="text_1">
      <!-- 0 -->
      <defs>
       <path d="M 42 31.640625 
C 42 37.75 41.90625 48.125 37.703125 56.109375 
C 34 63.109375 28.09375 65.59375 22.90625 65.59375 
C 18.09375 65.59375 12 63.40625 8.203125 56.203125 
C 4.203125 48.71875 3.796875 39.4375 3.796875 31.640625 
C 3.796875 25.953125 3.90625 17.28125 7 9.671875 
C 11.296875 -0.609375 19 -2 22.90625 -2 
C 27.5 -2 34.5 -0.109375 38.59375 9.375 
C 41.59375 16.28125 42 24.359375 42 31.640625 
M 22.90625 -0.40625 
C 16.5 -0.40625 12.703125 5.078125 11.296875 12.6875 
C 10.203125 18.5625 10.203125 27.15625 10.203125 32.75 
C 10.203125 40.4375 10.203125 46.828125 11.5 52.921875 
C 13.40625 61.390625 19 64 22.90625 64 
C 27 64 32.296875 61.296875 34.203125 53.125 
C 35.5 47.4375 35.59375 40.734375 35.59375 32.75 
C 35.59375 26.25 35.59375 18.265625 34.40625 12.375 
C 32.296875 1.484375 26.40625 -0.40625 22.90625 -0.40625 
" id="CMR17-48"/>
      </defs>
      <g transform="translate(83.852018 172.972944)scale(0.11 -0.11)">
       <use transform="scale(0.996264)" xlink:href="#CMR17-48"/>
      </g>
     </g>
    </g>
    <g id="xtick_2">
     <g id="line2d_2">
      <g>
       <use style="stroke:#000000;stroke-width:0.8;" x="111.087296" xlink:href="#mb4752357fa" y="158.362597"/>
      </g>
     </g>
     <g id="text_2">
      <!-- 1 -->
      <defs>
       <path d="M 26.59375 63.40625 
C 26.59375 65.5 26.5 65.5 25.09375 65.5 
C 21.203125 61.1875 15.296875 59.796875 9.703125 59.796875 
C 9.40625 59.796875 8.90625 59.796875 8.796875 59.5 
C 8.703125 59.296875 8.703125 59.09375 8.703125 57 
C 11.796875 57 17 57.59375 21 59.984375 
L 21 7.203125 
C 21 3.6875 20.796875 2.5 12.203125 2.5 
L 9.203125 2.5 
L 9.203125 0 
C 14 0 19 0 23.796875 0 
C 28.59375 0 33.59375 0 38.40625 0 
L 38.40625 2.5 
L 35.40625 2.5 
C 26.796875 2.5 26.59375 3.59375 26.59375 7.15625 
z
" id="CMR17-49"/>
      </defs>
      <g transform="translate(108.347563 172.972944)scale(0.11 -0.11)">
       <use transform="scale(0.996264)" xlink:href="#CMR17-49"/>
      </g>
     </g>
    </g>
    <g id="xtick_3">
     <g id="line2d_3">
      <g>
       <use style="stroke:#000000;stroke-width:0.8;" x="135.582841" xlink:href="#mb4752357fa" y="158.362597"/>
      </g>
     </g>
     <g id="text_3">
      <!-- 2 -->
      <defs>
       <path d="M 41.703125 15.453125 
L 39.90625 15.453125 
C 38.90625 8.375 38.09375 7.171875 37.703125 6.5625 
C 37.203125 5.765625 30 5.765625 28.59375 5.765625 
L 9.40625 5.765625 
C 13 9.671875 20 16.75 28.5 24.953125 
C 34.59375 30.734375 41.703125 37.53125 41.703125 47.421875 
C 41.703125 59.21875 32.296875 66 21.796875 66 
C 10.796875 66 4.09375 56.3125 4.09375 47.34375 
C 4.09375 43.4375 7 42.9375 8.203125 42.9375 
C 9.203125 42.9375 12.203125 43.546875 12.203125 47.03125 
C 12.203125 50.109375 9.59375 51 8.203125 51 
C 7.59375 51 7 50.90625 6.59375 50.703125 
C 8.5 59.21875 14.296875 63.40625 20.40625 63.40625 
C 29.09375 63.40625 34.796875 56.515625 34.796875 47.421875 
C 34.796875 38.734375 29.703125 31.25 24 24.75 
L 4.09375 2.28125 
L 4.09375 0 
L 39.296875 0 
z
" id="CMR17-50"/>
      </defs>
      <g transform="translate(132.843108 172.972944)scale(0.11 -0.11)">
       <use transform="scale(0.996264)" xlink:href="#CMR17-50"/>
      </g>
     </g>
    </g>
    <g id="xtick_4">
     <g id="line2d_4">
      <g>
       <use style="stroke:#000000;stroke-width:0.8;" x="160.078386" xlink:href="#mb4752357fa" y="158.362597"/>
      </g>
     </g>
     <g id="text_4">
      <!-- 3 -->
      <defs>
       <path d="M 22.09375 33.703125 
C 31 33.703125 34.90625 25.96875 34.90625 17.03125 
C 34.90625 5 28.5 0.390625 22.703125 0.390625 
C 17.40625 0.390625 8.796875 3.03125 6.09375 10.828125 
C 6.59375 10.625 7.09375 10.625 7.59375 10.625 
C 10 10.625 11.796875 12.21875 11.796875 14.8125 
C 11.796875 17.703125 9.59375 19 7.59375 19 
C 5.90625 19 3.296875 18.203125 3.296875 14.46875 
C 3.296875 5.234375 12.296875 -2 22.90625 -2 
C 34 -2 42.5 6.71875 42.5 16.953125 
C 42.5 26.671875 34.5 33.703125 25 34.796875 
C 32.59375 36.375 39.90625 43.0625 39.90625 52.015625 
C 39.90625 59.6875 32 65.296875 23 65.296875 
C 13.90625 65.296875 5.90625 59.828125 5.90625 52.015625 
C 5.90625 48.59375 8.5 48 9.796875 48 
C 11.90625 48 13.703125 49.296875 13.703125 51.890625 
C 13.703125 54.46875 11.90625 55.765625 9.796875 55.765625 
C 9.40625 55.765625 8.90625 55.765625 8.5 55.578125 
C 11.40625 61.859375 19.296875 63 22.796875 63 
C 26.296875 63 32.90625 61.328125 32.90625 51.875 
C 32.90625 49.109375 32.5 44.1875 29.09375 39.84375 
C 26.09375 36 22.703125 36 19.40625 35.6875 
C 18.90625 35.6875 16.59375 35.453125 16.203125 35.453125 
C 15.5 35.359375 15.09375 35.265625 15.09375 34.5 
C 15.09375 33.796875 15.203125 33.703125 17.203125 33.703125 
z
" id="CMR17-51"/>
      </defs>
      <g transform="translate(157.338653 172.972944)scale(0.11 -0.11)">
       <use transform="scale(0.996264)" xlink:href="#CMR17-51"/>
      </g>
     </g>
    </g>
    <g id="xtick_5">
     <g id="line2d_5">
      <g>
       <use style="stroke:#000000;stroke-width:0.8;" x="184.573931" xlink:href="#mb4752357fa" y="158.362597"/>
      </g>
     </g>
     <g id="text_5">
      <!-- 4 -->
      <defs>
       <path d="M 33.59375 64.40625 
C 33.59375 66.5 33.5 66.5 31.703125 66.5 
L 2 19.59375 
L 2 17 
L 27.796875 17 
L 27.796875 7.140625 
C 27.796875 3.5 27.59375 2.5 20.59375 2.5 
L 18.703125 2.5 
L 18.703125 0 
C 21.90625 0 27.296875 0 30.703125 0 
C 34.09375 0 39.5 0 42.703125 0 
L 42.703125 2.5 
L 40.796875 2.5 
C 33.796875 2.5 33.59375 3.5 33.59375 7.140625 
L 33.59375 17 
L 43.796875 17 
L 43.796875 19.59375 
L 33.59375 19.59375 
z
M 28.09375 57.859375 
L 28.09375 19.59375 
L 4 19.59375 
z
" id="CMR17-52"/>
      </defs>
      <g transform="translate(181.834198 172.972944)scale(0.11 -0.11)">
       <use transform="scale(0.996264)" xlink:href="#CMR17-52"/>
      </g>
     </g>
    </g>
    <g id="xtick_6">
     <g id="line2d_6">
      <g>
       <use style="stroke:#000000;stroke-width:0.8;" x="209.069476" xlink:href="#mb4752357fa" y="158.362597"/>
      </g>
     </g>
     <g id="text_6">
      <!-- 5 -->
      <defs>
       <path d="M 11.40625 57.6875 
C 12.40625 57.28125 16.5 56 20.703125 56 
C 30 56 35.09375 61.109375 38 64.0625 
C 38 64.953125 38 65.5 37.40625 65.5 
C 37.296875 65.5 37.09375 65.5 36.296875 65.046875 
C 32.796875 63.40625 28.703125 62.078125 23.703125 62.078125 
C 20.703125 62.078125 16.203125 62.484375 11.296875 64.671875 
C 10.203125 65.171875 10 65.171875 9.90625 65.171875 
C 9.40625 65.171875 9.296875 65.0625 9.296875 63.078125 
L 9.296875 34.421875 
C 9.296875 32.640625 9.296875 32.140625 10.296875 32.140625 
C 10.796875 32.140625 11 32.34375 11.5 33.03125 
C 14.703125 37.515625 19.09375 39.40625 24.09375 39.40625 
C 27.59375 39.40625 35.09375 37.21875 35.09375 20.140625 
C 35.09375 16.953125 35.09375 11.171875 32.09375 6.578125 
C 29.59375 2.484375 25.703125 0.390625 21.40625 0.390625 
C 14.796875 0.390625 8.09375 5 6.296875 12.71875 
C 6.703125 12.609375 7.5 12.421875 7.90625 12.421875 
C 9.203125 12.421875 11.703125 13.125 11.703125 16.21875 
C 11.703125 18.90625 9.796875 20 7.90625 20 
C 5.59375 20 4.09375 18.59375 4.09375 15.796875 
C 4.09375 7.09375 11 -2 21.59375 -2 
C 31.90625 -2 41.703125 6.875 41.703125 19.75 
C 41.703125 31.71875 33.90625 41 24.203125 41 
C 19.09375 41 14.796875 39.109375 11.40625 35.53125 
z
" id="CMR17-53"/>
      </defs>
      <g transform="translate(206.329743 172.972944)scale(0.11 -0.11)">
       <use transform="scale(0.996264)" xlink:href="#CMR17-53"/>
      </g>
     </g>
    </g>
    <g id="xtick_7">
     <g id="line2d_7">
      <g>
       <use style="stroke:#000000;stroke-width:0.8;" x="233.565021" xlink:href="#mb4752357fa" y="158.362597"/>
      </g>
     </g>
     <g id="text_7">
      <!-- 6 -->
      <defs>
       <path d="M 10.59375 34 
C 10.59375 57.65625 21.796875 63 28.296875 63 
C 30.40625 63 35.5 62.640625 37.5 59 
C 35.90625 59 32.90625 59 32.90625 55.515625 
C 32.90625 52.828125 35.09375 51.921875 36.5 51.921875 
C 37.40625 51.921875 40.09375 52.3125 40.09375 55.625 
C 40.09375 61.78125 35.09375 65.296875 28.203125 65.296875 
C 16.296875 65.296875 3.796875 52.96875 3.796875 31 
C 3.796875 3.953125 15.09375 -2 23.09375 -2 
C 32.796875 -2 42 6.671875 42 20.046875 
C 42 32.515625 33.90625 41.59375 23.703125 41.59375 
C 17.59375 41.59375 13.09375 37.609375 10.59375 30.625 
z
M 23.09375 0.390625 
C 10.796875 0.390625 10.796875 18.75 10.796875 22.4375 
C 10.796875 29.625 14.203125 40 23.5 40 
C 25.203125 40 30.09375 40 33.40625 33.125 
C 35.203125 29.21875 35.203125 25.140625 35.203125 20.140625 
C 35.203125 14.75 35.203125 10.78125 33.09375 6.78125 
C 30.90625 2.671875 27.703125 0.390625 23.09375 0.390625 
" id="CMR17-54"/>
      </defs>
      <g transform="translate(230.825288 172.972944)scale(0.11 -0.11)">
       <use transform="scale(0.996264)" xlink:href="#CMR17-54"/>
      </g>
     </g>
    </g>
    <g id="xtick_8">
     <g id="line2d_8">
      <g>
       <use style="stroke:#000000;stroke-width:0.8;" x="258.060566" xlink:href="#mb4752357fa" y="158.362597"/>
      </g>
     </g>
     <g id="text_8">
      <!-- 7 -->
      <defs>
       <path d="M 45.09375 61.578125 
L 45.09375 63.765625 
L 21.59375 63.765625 
C 9.90625 63.765625 9.703125 65.078125 9.296875 67 
L 7.5 67 
L 4.59375 48.34375 
L 6.40625 48.34375 
C 6.703125 50.234375 7.40625 55.3125 8.59375 57.203125 
C 9.203125 58 16.59375 58 18.296875 58 
L 40.296875 58 
L 29.203125 41.578125 
C 21.796875 30.53125 16.703125 15.609375 16.703125 2.578125 
C 16.703125 1.390625 16.703125 -2 20.296875 -2 
C 23.90625 -2 23.90625 1.390625 23.90625 2.671875 
L 23.90625 7.265625 
C 23.90625 23.5625 26.703125 34.3125 31.296875 41.1875 
z
" id="CMR17-55"/>
      </defs>
      <g transform="translate(255.320833 172.972944)scale(0.11 -0.11)">
       <use transform="scale(0.996264)" xlink:href="#CMR17-55"/>
      </g>
     </g>
    </g>
    <g id="xtick_9">
     <g id="line2d_9">
      <g>
       <use style="stroke:#000000;stroke-width:0.8;" x="282.556111" xlink:href="#mb4752357fa" y="158.362597"/>
      </g>
     </g>
     <g id="text_9">
      <!-- 8 -->
      <defs>
       <path d="M 27.203125 35.375 
C 33.5 38.546875 39.90625 43.328125 39.90625 50.984375 
C 39.90625 60.015625 31.09375 65.296875 23 65.296875 
C 13.90625 65.296875 5.90625 58.734375 5.90625 49.6875 
C 5.90625 47.203125 6.5 42.921875 10.40625 39.140625 
C 11.40625 38.15625 15.59375 35.171875 18.296875 33.28125 
C 13.796875 30.984375 3.296875 25.53125 3.296875 14.59375 
C 3.296875 4.359375 13.09375 -2 22.796875 -2 
C 33.5 -2 42.5 5.65625 42.5 15.78125 
C 42.5 24.84375 36.40625 29.015625 32.40625 31.703125 
z
M 14.09375 44.09375 
C 13.296875 44.59375 9.296875 47.671875 9.296875 52.359375 
C 9.296875 58.421875 15.59375 63 22.796875 63 
C 30.703125 63 36.5 57.4375 36.5 50.96875 
C 36.5 41.703125 26.09375 36.421875 25.59375 36.421875 
C 25.5 36.421875 25.40625 36.421875 24.59375 37.03125 
z
M 32.5 23.734375 
C 34 22.640625 38.796875 19.375 38.796875 13.296875 
C 38.796875 5.953125 31.40625 0.390625 23 0.390625 
C 13.90625 0.390625 7 6.84375 7 14.6875 
C 7 22.546875 13.09375 29.09375 20 32.1875 
z
" id="CMR17-56"/>
      </defs>
      <g transform="translate(279.816378 172.972944)scale(0.11 -0.11)">
       <use transform="scale(0.996264)" xlink:href="#CMR17-56"/>
      </g>
     </g>
    </g>
    <g id="xtick_10">
     <g id="line2d_10">
      <g>
       <use style="stroke:#000000;stroke-width:0.8;" x="307.051656" xlink:href="#mb4752357fa" y="158.362597"/>
      </g>
     </g>
     <g id="text_10">
      <!-- 9 -->
      <defs>
       <path d="M 35.203125 29.125 
C 35.203125 7.25 26.09375 0.484375 18.59375 0.484375 
C 16.296875 0.484375 10.703125 0.484375 8.40625 4.59375 
C 11 4.1875 12.90625 5.578125 12.90625 8.09375 
C 12.90625 10.8125 10.703125 11.703125 9.296875 11.703125 
C 8.40625 11.703125 5.703125 11.296875 5.703125 7.90625 
C 5.703125 1.109375 11.59375 -2 18.796875 -2 
C 30.296875 -2 42 10.53125 42 32.390625 
C 42 59.640625 30.796875 65.296875 23.203125 65.296875 
C 13.296875 65.296875 3.796875 56.6875 3.796875 43.40625 
C 3.796875 31.109375 11.90625 22 22.09375 22 
C 30.5 22 34.203125 29.734375 35.203125 33 
z
M 22.296875 23.59375 
C 19.59375 23.59375 15.796875 24.09375 12.703125 30.03125 
C 10.59375 33.890625 10.59375 38.453125 10.59375 43.296875 
C 10.59375 49.15625 10.59375 53.203125 13.40625 57.5625 
C 14.796875 59.640625 17.40625 63 23.203125 63 
C 35 63 35 45.078125 35 41.125 
C 35 34.09375 31.796875 23.59375 22.296875 23.59375 
" id="CMR17-57"/>
      </defs>
      <g transform="translate(304.311922 172.972944)scale(0.11 -0.11)">
       <use transform="scale(0.996264)" xlink:href="#CMR17-57"/>
      </g>
     </g>
    </g>
    <g id="xtick_11">
     <g id="line2d_11">
      <g>
       <use style="stroke:#000000;stroke-width:0.8;" x="331.547201" xlink:href="#mb4752357fa" y="158.362597"/>
      </g>
     </g>
     <g id="text_11">
      <!-- 10 -->
      <g transform="translate(326.067734 172.972944)scale(0.11 -0.11)">
       <use transform="scale(0.996264)" xlink:href="#CMR17-49"/>
       <use transform="translate(45.690477 0)scale(0.996264)" xlink:href="#CMR17-48"/>
      </g>
     </g>
    </g>
    <g id="xtick_12">
     <g id="line2d_12">
      <g>
       <use style="stroke:#000000;stroke-width:0.8;" x="356.042746" xlink:href="#mb4752357fa" y="158.362597"/>
      </g>
     </g>
     <g id="text_12">
      <!-- 11 -->
      <g transform="translate(350.563279 172.972944)scale(0.11 -0.11)">
       <use transform="scale(0.996264)" xlink:href="#CMR17-49"/>
       <use transform="translate(45.690477 0)scale(0.996264)" xlink:href="#CMR17-49"/>
      </g>
     </g>
    </g>
    <g id="xtick_13">
     <g id="line2d_13">
      <g>
       <use style="stroke:#000000;stroke-width:0.8;" x="380.538291" xlink:href="#mb4752357fa" y="158.362597"/>
      </g>
     </g>
     <g id="text_13">
      <!-- 12 -->
      <g transform="translate(375.058824 172.972944)scale(0.11 -0.11)">
       <use transform="scale(0.996264)" xlink:href="#CMR17-49"/>
       <use transform="translate(45.690477 0)scale(0.996264)" xlink:href="#CMR17-50"/>
      </g>
     </g>
    </g>
    <g id="xtick_14">
     <g id="line2d_14">
      <g>
       <use style="stroke:#000000;stroke-width:0.8;" x="405.033836" xlink:href="#mb4752357fa" y="158.362597"/>
      </g>
     </g>
     <g id="text_14">
      <!-- 13 -->
      <g transform="translate(399.554369 172.972944)scale(0.11 -0.11)">
       <use transform="scale(0.996264)" xlink:href="#CMR17-49"/>
       <use transform="translate(45.690477 0)scale(0.996264)" xlink:href="#CMR17-51"/>
      </g>
     </g>
    </g>
    <g id="xtick_15">
     <g id="line2d_15">
      <g>
       <use style="stroke:#000000;stroke-width:0.8;" x="429.529381" xlink:href="#mb4752357fa" y="158.362597"/>
      </g>
     </g>
     <g id="text_15">
      <!-- 14 -->
      <g transform="translate(424.049914 172.972944)scale(0.11 -0.11)">
       <use transform="scale(0.996264)" xlink:href="#CMR17-49"/>
       <use transform="translate(45.690477 0)scale(0.996264)" xlink:href="#CMR17-52"/>
      </g>
     </g>
    </g>
    <g id="xtick_16">
     <g id="line2d_16">
      <g>
       <use style="stroke:#000000;stroke-width:0.8;" x="454.024926" xlink:href="#mb4752357fa" y="158.362597"/>
      </g>
     </g>
     <g id="text_16">
      <!-- 15 -->
      <g transform="translate(448.545459 172.972944)scale(0.11 -0.11)">
       <use transform="scale(0.996264)" xlink:href="#CMR17-49"/>
       <use transform="translate(45.690477 0)scale(0.996264)" xlink:href="#CMR17-53"/>
      </g>
     </g>
    </g>
    <g id="xtick_17">
     <g id="line2d_17">
      <g>
       <use style="stroke:#000000;stroke-width:0.8;" x="478.520471" xlink:href="#mb4752357fa" y="158.362597"/>
      </g>
     </g>
     <g id="text_17">
      <!-- 16 -->
      <g transform="translate(473.041004 172.972944)scale(0.11 -0.11)">
       <use transform="scale(0.996264)" xlink:href="#CMR17-49"/>
       <use transform="translate(45.690477 0)scale(0.996264)" xlink:href="#CMR17-54"/>
      </g>
     </g>
    </g>
    <g id="xtick_18">
     <g id="line2d_18">
      <g>
       <use style="stroke:#000000;stroke-width:0.8;" x="503.016016" xlink:href="#mb4752357fa" y="158.362597"/>
      </g>
     </g>
     <g id="text_18">
      <!-- 17 -->
      <g transform="translate(497.536549 172.972944)scale(0.11 -0.11)">
       <use transform="scale(0.996264)" xlink:href="#CMR17-49"/>
       <use transform="translate(45.690477 0)scale(0.996264)" xlink:href="#CMR17-55"/>
      </g>
     </g>
    </g>
    <g id="xtick_19">
     <g id="line2d_19">
      <g>
       <use style="stroke:#000000;stroke-width:0.8;" x="527.511561" xlink:href="#mb4752357fa" y="158.362597"/>
      </g>
     </g>
     <g id="text_19">
      <!-- 18 -->
      <g transform="translate(522.032093 172.972944)scale(0.11 -0.11)">
       <use transform="scale(0.996264)" xlink:href="#CMR17-49"/>
       <use transform="translate(45.690477 0)scale(0.996264)" xlink:href="#CMR17-56"/>
      </g>
     </g>
    </g>
    <g id="xtick_20">
     <g id="line2d_20">
      <g>
       <use style="stroke:#000000;stroke-width:0.8;" x="552.007106" xlink:href="#mb4752357fa" y="158.362597"/>
      </g>
     </g>
     <g id="text_20">
      <!-- 19 -->
      <g transform="translate(546.527638 172.972944)scale(0.11 -0.11)">
       <use transform="scale(0.996264)" xlink:href="#CMR17-49"/>
       <use transform="translate(45.690477 0)scale(0.996264)" xlink:href="#CMR17-57"/>
      </g>
     </g>
    </g>
   </g>
   <g id="matplotlib.axis_2">
    <g id="ytick_1">
     <g id="line2d_21">
      <defs>
       <path d="M 0 0 
L -3.5 0 
" id="me4ab102063" style="stroke:#000000;stroke-width:0.8;"/>
      </defs>
      <g>
       <use style="stroke:#000000;stroke-width:0.8;" x="53.216571" xlink:href="#me4ab102063" y="158.362597"/>
      </g>
     </g>
     <g id="text_21">
      <!-- $0.00$ -->
      <defs>
       <path d="M 18.40625 4.796875 
C 18.40625 7.6875 16 9.671875 13.59375 9.671875 
C 10.703125 9.671875 8.703125 7.28125 8.703125 4.890625 
C 8.703125 2 11.09375 0 13.5 0 
C 16.40625 0 18.40625 2.390625 18.40625 4.796875 
" id="CMMI12-58"/>
      </defs>
      <g transform="translate(26.734028 162.167771)scale(0.11 -0.11)">
       <use transform="scale(0.996264)" xlink:href="#CMR17-48"/>
       <use transform="translate(45.690477 0)scale(0.996264)" xlink:href="#CMMI12-58"/>
       <use transform="translate(72.787654 0)scale(0.996264)" xlink:href="#CMR17-48"/>
       <use transform="translate(118.478131 0)scale(0.996264)" xlink:href="#CMR17-48"/>
      </g>
     </g>
    </g>
    <g id="ytick_2">
     <g id="line2d_22">
      <g>
       <use style="stroke:#000000;stroke-width:0.8;" x="53.216571" xlink:href="#me4ab102063" y="126.923732"/>
      </g>
     </g>
     <g id="text_22">
      <!-- $0.25$ -->
      <g transform="translate(26.734028 130.728905)scale(0.11 -0.11)">
       <use transform="scale(0.996264)" xlink:href="#CMR17-48"/>
       <use transform="translate(45.690477 0)scale(0.996264)" xlink:href="#CMMI12-58"/>
       <use transform="translate(72.787654 0)scale(0.996264)" xlink:href="#CMR17-50"/>
       <use transform="translate(118.478131 0)scale(0.996264)" xlink:href="#CMR17-53"/>
      </g>
     </g>
    </g>
    <g id="ytick_3">
     <g id="line2d_23">
      <g>
       <use style="stroke:#000000;stroke-width:0.8;" x="53.216571" xlink:href="#me4ab102063" y="95.484867"/>
      </g>
     </g>
     <g id="text_23">
      <!-- $0.50$ -->
      <g transform="translate(26.734028 99.29004)scale(0.11 -0.11)">
       <use transform="scale(0.996264)" xlink:href="#CMR17-48"/>
       <use transform="translate(45.690477 0)scale(0.996264)" xlink:href="#CMMI12-58"/>
       <use transform="translate(72.787654 0)scale(0.996264)" xlink:href="#CMR17-53"/>
       <use transform="translate(118.478131 0)scale(0.996264)" xlink:href="#CMR17-48"/>
      </g>
     </g>
    </g>
    <g id="ytick_4">
     <g id="line2d_24">
      <g>
       <use style="stroke:#000000;stroke-width:0.8;" x="53.216571" xlink:href="#me4ab102063" y="64.046002"/>
      </g>
     </g>
     <g id="text_24">
      <!-- $0.75$ -->
      <g transform="translate(26.734028 67.851175)scale(0.11 -0.11)">
       <use transform="scale(0.996264)" xlink:href="#CMR17-48"/>
       <use transform="translate(45.690477 0)scale(0.996264)" xlink:href="#CMMI12-58"/>
       <use transform="translate(72.787654 0)scale(0.996264)" xlink:href="#CMR17-55"/>
       <use transform="translate(118.478131 0)scale(0.996264)" xlink:href="#CMR17-53"/>
      </g>
     </g>
    </g>
    <g id="ytick_5">
     <g id="line2d_25">
      <g>
       <use style="stroke:#000000;stroke-width:0.8;" x="53.216571" xlink:href="#me4ab102063" y="32.607136"/>
      </g>
     </g>
     <g id="text_25">
      <!-- $1.00$ -->
      <g transform="translate(26.734028 36.41231)scale(0.11 -0.11)">
       <use transform="scale(0.996264)" xlink:href="#CMR17-49"/>
       <use transform="translate(45.690477 0)scale(0.996264)" xlink:href="#CMMI12-58"/>
       <use transform="translate(72.787654 0)scale(0.996264)" xlink:href="#CMR17-48"/>
       <use transform="translate(118.478131 0)scale(0.996264)" xlink:href="#CMR17-48"/>
      </g>
     </g>
    </g>
    <g id="text_26">
     <!-- Precision -->
     <defs>
      <path d="M 19.796875 31.90625 
L 35.796875 31.90625 
C 48.703125 31.90625 58.09375 40.28125 58.09375 49.75 
C 58.09375 59.234375 48.90625 68 35.796875 68 
L 5.203125 68 
L 5.203125 65.40625 
C 12.09375 65.40625 13.203125 65.40625 13.203125 60.921875 
L 13.203125 6.96875 
C 13.203125 2.5 12.09375 2.5 5.203125 2.5 
L 5.203125 0 
C 8.09375 0 13.40625 0 16.5 0 
C 19.59375 0 24.90625 0 27.796875 0 
L 27.796875 2.5 
C 20.90625 2.5 19.796875 2.5 19.796875 6.96875 
z
M 19.59375 34 
L 19.59375 61.53125 
C 19.59375 64.921875 19.796875 65.40625 23.796875 65.40625 
L 33.90625 65.40625 
C 46.796875 65.40625 50.5 58.03125 50.5 49.75 
C 50.5 40.6875 46.09375 34 33.90625 34 
z
" id="CMR17-80"/>
      <path d="M 15 23.390625 
C 15 33 19.09375 42 26.59375 42 
C 27.296875 42 28 41.90625 28.703125 41.59375 
C 28.703125 41.59375 26.5 40.890625 26.5 38.3125 
C 26.5 35.90625 28.40625 34.90625 29.90625 34.90625 
C 31.09375 34.90625 33.296875 35.609375 33.296875 38.40625 
C 33.296875 41.609375 30.09375 43.59375 26.703125 43.59375 
C 19.09375 43.59375 15.796875 36.203125 14.796875 32.703125 
L 14.703125 32.703125 
L 14.703125 43.59375 
L 3.09375 42.5 
L 3.09375 39.90625 
C 9 39.90625 9.90625 39.296875 9.90625 34.5 
L 9.90625 6.6875 
C 9.90625 2.875 9.5 2.390625 3.09375 2.390625 
L 3.09375 -0.203125 
C 5.5 0 10.09375 0 12.703125 0 
C 15.59375 0 20.703125 0 23.40625 -0.203125 
L 23.40625 2.390625 
C 16.203125 2.390625 15 2.390625 15 6.875 
z
" id="CMR17-114"/>
      <path d="M 38.09375 23 
C 38.5 23.40625 38.5 23.609375 38.5 24.625 
C 38.5 34.96875 33.09375 44 21.703125 44 
C 11.09375 44 2.703125 33.890625 2.703125 21.609375 
C 2.703125 8.609375 12.203125 -1 22.796875 -1 
C 34 -1 38.40625 9.484375 38.40625 11.5625 
C 38.40625 12.25 37.796875 12.25 37.59375 12.25 
C 36.90625 12.25 36.796875 12.046875 36.40625 10.875 
C 34.203125 4.140625 28.703125 0.796875 23.5 0.796875 
C 19.203125 0.796875 14.90625 3.171875 12.203125 7.5 
C 9.09375 12.546875 9.09375 18.375 9.09375 23 
z
M 9.203125 24.5 
C 9.90625 39.140625 17.59375 42.40625 21.59375 42.40625 
C 28.40625 42.40625 33 35.890625 33.09375 24.5 
z
" id="CMR17-101"/>
      <path d="M 34.90625 35 
C 33 35 30.203125 35 30.203125 31.515625 
C 30.203125 28.71875 32.5 27.921875 33.796875 27.921875 
C 34.5 27.921875 37.40625 28.234375 37.40625 31.625 
C 37.40625 38.546875 30.59375 43.796875 22.90625 43.796875 
C 12.296875 43.796875 3.296875 34.03125 3.296875 21.296875 
C 3.296875 8.0625 12.703125 -1 22.90625 -1 
C 35.296875 -1 38.40625 10.578125 38.40625 11.6875 
C 38.40625 12.09375 38.296875 12.390625 37.59375 12.390625 
C 36.90625 12.390625 36.796875 12.296875 36.40625 10.984375 
C 33.796875 2.8125 28.09375 0.796875 23.796875 0.796875 
C 17.40625 0.796875 9.703125 6.671875 9.703125 21.390625 
C 9.703125 36.53125 17.09375 42 23 42 
C 26.90625 42 32.703125 40.203125 34.90625 35 
" id="CMR17-99"/>
      <path d="M 15.5 61.078125 
C 15.5 63.265625 13.703125 65.15625 11.40625 65.15625 
C 9.203125 65.15625 7.296875 63.375 7.296875 61.078125 
C 7.296875 58.890625 9.09375 57 11.40625 57 
C 13.59375 57 15.5 58.796875 15.5 61.078125 
M 3.796875 42.28125 
L 3.796875 39.703125 
C 9.40625 39.703125 10.203125 39.09375 10.203125 34.328125 
L 10.203125 6.671875 
C 10.203125 2.875 9.796875 2.390625 3.40625 2.390625 
L 3.40625 -0.203125 
C 5.796875 0 10.09375 0 12.59375 0 
C 15 0 19.09375 0 21.40625 -0.203125 
L 21.40625 2.390625 
C 15.5 2.390625 15.296875 2.984375 15.296875 6.5625 
L 15.296875 43.375 
z
" id="CMR17-105"/>
      <path d="M 30.90625 42.140625 
C 30.90625 43.953125 30.796875 44.046875 30.203125 44.046875 
C 29.796875 44.046875 29.703125 43.953125 28.5 42.453125 
C 28.203125 42.046875 27.296875 41.03125 27 40.640625 
C 23.796875 44.046875 19.296875 44.046875 17.59375 44.046875 
C 6.5 44.046875 2.5 38.234375 2.5 32.4375 
C 2.5 23.40625 12.703125 21.328125 15.59375 20.703125 
C 21.90625 19.421875 24.09375 19.015625 26.203125 17.203125 
C 27.5 16.015625 29.703125 13.8125 29.703125 10.21875 
C 29.703125 6 27.296875 0.59375 18.09375 0.59375 
C 9.40625 0.59375 6.296875 7.1875 4.5 15.953125 
C 4.203125 17.34375 4.203125 17.453125 3.40625 17.453125 
C 2.59375 17.453125 2.5 17.34375 2.5 15.359375 
L 2.5 0.984375 
C 2.5 -0.796875 2.59375 -0.90625 3.203125 -0.90625 
C 3.703125 -0.90625 3.796875 -0.796875 4.296875 0 
C 4.90625 0.890625 6.40625 3.296875 7 4.3125 
C 9 1.609375 12.5 -1 18.09375 -1 
C 28 -1 33.296875 4.421875 33.296875 12.25 
C 33.296875 17.375 30.59375 20.078125 29.296875 21.28125 
C 26.296875 24.390625 22.796875 25.09375 18.59375 25.890625 
C 13.09375 27.109375 6.09375 28.515625 6.09375 34.640625 
C 6.09375 37.234375 7.5 42.765625 17.59375 42.765625 
C 28.296875 42.765625 28.90625 32.71875 29.09375 29.5 
C 29.203125 29 29.703125 28.890625 30 28.890625 
C 30.90625 28.890625 30.90625 29.203125 30.90625 30.90625 
z
" id="CMR17-115"/>
      <path d="M 43.09375 21.1875 
C 43.09375 34 33.796875 44 22.90625 44 
C 12 44 2.703125 34 2.703125 21.1875 
C 2.703125 8.609375 12 -1 22.90625 -1 
C 33.796875 -1 43.09375 8.609375 43.09375 21.1875 
M 22.90625 0.796875 
C 18.203125 0.796875 14.203125 3.59375 11.90625 7.5 
C 9.40625 11.984375 9.09375 17.59375 9.09375 22 
C 9.09375 26.203125 9.296875 31.40625 11.90625 35.90625 
C 13.90625 39.203125 17.796875 42.40625 22.90625 42.40625 
C 27.40625 42.40625 31.203125 39.90625 33.59375 36.40625 
C 36.703125 31.703125 36.703125 25.109375 36.703125 22 
C 36.703125 18.09375 36.5 12.109375 33.796875 7.296875 
C 31 2.703125 26.703125 0.796875 22.90625 0.796875 
" id="CMR17-111"/>
      <path d="M 41.5 30.203125 
C 41.5 35.296875 40.5 43.59375 28.703125 43.59375 
C 20.796875 43.59375 16.703125 37.5 15.203125 33.5 
L 15.09375 33.5 
L 15.09375 43.59375 
L 3.296875 42.5 
L 3.296875 39.90625 
C 9.203125 39.90625 10.09375 39.296875 10.09375 34.5 
L 10.09375 6.6875 
C 10.09375 2.875 9.703125 2.390625 3.296875 2.390625 
L 3.296875 -0.203125 
C 5.703125 0 10.09375 0 12.703125 0 
C 15.296875 0 19.796875 0 22.203125 -0.203125 
L 22.203125 2.390625 
C 15.796875 2.390625 15.40625 2.78125 15.40625 6.6875 
L 15.40625 25.90625 
C 15.40625 35.109375 21 42 28 42 
C 35.40625 42 36.203125 35.40625 36.203125 30.59375 
L 36.203125 6.6875 
C 36.203125 2.875 35.796875 2.390625 29.40625 2.390625 
L 29.40625 -0.203125 
C 31.796875 0 36.203125 0 38.796875 0 
C 41.40625 0 45.90625 0 48.296875 -0.203125 
L 48.296875 2.390625 
C 41.90625 2.390625 41.5 2.78125 41.5 6.6875 
z
" id="CMR17-110"/>
     </defs>
     <g transform="translate(20.603133 116.139368)rotate(-90)scale(0.11 -0.11)">
      <use transform="scale(0.996264)" xlink:href="#CMR17-80"/>
      <use transform="translate(62.586301 0)scale(0.996264)" xlink:href="#CMR17-114"/>
      <use transform="translate(97.867068 0)scale(0.996264)" xlink:href="#CMR17-101"/>
      <use transform="translate(138.352729 0)scale(0.996264)" xlink:href="#CMR17-99"/>
      <use transform="translate(178.838389 0)scale(0.996264)" xlink:href="#CMR17-105"/>
      <use transform="translate(203.709448 0)scale(0.996264)" xlink:href="#CMR17-115"/>
      <use transform="translate(239.510785 0)scale(0.996264)" xlink:href="#CMR17-105"/>
      <use transform="translate(264.381844 0)scale(0.996264)" xlink:href="#CMR17-111"/>
      <use transform="translate(310.072321 0)scale(0.996264)" xlink:href="#CMR17-110"/>
     </g>
    </g>
   </g>
   <g id="patch_63">
    <path d="M 53.216571 158.362597 
L 53.216571 30.445714 
" style="fill:none;stroke:#000000;stroke-linecap:square;stroke-linejoin:miter;stroke-width:0.8;"/>
   </g>
   <g id="patch_64">
    <path d="M 585.382286 158.362597 
L 585.382286 30.445714 
" style="fill:none;stroke:#000000;stroke-linecap:square;stroke-linejoin:miter;stroke-width:0.8;"/>
   </g>
   <g id="patch_65">
    <path d="M 53.216571 158.362597 
L 585.382286 158.362597 
" style="fill:none;stroke:#000000;stroke-linecap:square;stroke-linejoin:miter;stroke-width:0.8;"/>
   </g>
   <g id="patch_66">
    <path d="M 53.216571 30.445714 
L 585.382286 30.445714 
" style="fill:none;stroke:#000000;stroke-linecap:square;stroke-linejoin:miter;stroke-width:0.8;"/>
   </g>
   <g id="legend_1">
    <g id="patch_67">
     <path d="M 60.916571 152.862597 
L 147.988838 152.862597 
Q 150.188838 152.862597 150.188838 150.662597 
L 150.188838 105.769913 
Q 150.188838 103.569913 147.988838 103.569913 
L 60.916571 103.569913 
Q 58.716571 103.569913 58.716571 105.769913 
L 58.716571 150.662597 
Q 58.716571 152.862597 60.916571 152.862597 
z
" style="fill:#ffffff;opacity:0.8;stroke:#cccccc;stroke-linejoin:miter;"/>
    </g>
    <g id="patch_68">
     <path d="M 63.116571 115.669913 
L 85.116571 115.669913 
L 85.116571 107.969913 
L 63.116571 107.969913 
z
" style="fill:#ff0000;"/>
    </g>
    <g id="text_27">
     <!-- 1 sample -->
     <defs>
      <path d="M 36 25.828125 
C 36 32.375 36 35.84375 31.796875 39.734375 
C 28.09375 43 23.796875 44 20.40625 44 
C 12.5 44 6.796875 37.609375 6.796875 30.796875 
C 6.796875 27 9.796875 27 10.40625 27 
C 11.703125 27 14 27.78125 14 30.53125 
C 14 33 12.09375 34.078125 10.40625 34.078125 
C 10 34.078125 9.5 33.96875 9.203125 33.875 
C 11.296875 40.5 16.703125 42.40625 20.203125 42.40625 
C 25.203125 42.40625 30.703125 37.953125 30.703125 29.453125 
L 30.703125 25 
C 24.796875 25 17.703125 24.203125 12.09375 21.203125 
C 5.796875 17.703125 4 12.703125 4 8.90625 
C 4 1.203125 13 -1 18.296875 -1 
C 23.796875 -1 28.90625 2.171875 31.09375 7.984375 
C 31.296875 3.640625 34.09375 -0.28125 38.5 -0.28125 
C 40.59375 -0.28125 45.90625 1.09375 45.90625 8.859375 
L 45.90625 14.375 
L 44.09375 14.375 
L 44.09375 8.78125 
C 44.09375 2.78125 41.40625 2 40.09375 2 
C 36 2 36 7.15625 36 11.53125 
z
M 30.703125 13.59375 
C 30.703125 4.953125 24.5 0.59375 19 0.59375 
C 14 0.59375 10.09375 4.296875 10.09375 8.90625 
C 10.09375 11.890625 11.40625 17.1875 17.203125 20.390625 
C 22 23.09375 27.5 23.5 30.703125 23.5 
z
" id="CMR17-97"/>
      <path d="M 67.59375 30.203125 
C 67.59375 35.1875 66.703125 43.59375 54.796875 43.59375 
C 48 43.59375 43.296875 39 41.5 33.609375 
L 41.40625 33.609375 
C 40.203125 41.8125 34.296875 43.59375 28.703125 43.59375 
C 20.796875 43.59375 16.703125 37.5 15.203125 33.5 
L 15.09375 33.5 
L 15.09375 43.59375 
L 3.296875 42.5 
L 3.296875 39.90625 
C 9.203125 39.90625 10.09375 39.296875 10.09375 34.5 
L 10.09375 6.6875 
C 10.09375 2.875 9.703125 2.390625 3.296875 2.390625 
L 3.296875 -0.203125 
C 5.703125 0 10.09375 0 12.703125 0 
C 15.296875 0 19.796875 0 22.203125 -0.203125 
L 22.203125 2.390625 
C 15.796875 2.390625 15.40625 2.78125 15.40625 6.6875 
L 15.40625 25.90625 
C 15.40625 35.109375 21 42 28 42 
C 35.40625 42 36.203125 35.40625 36.203125 30.59375 
L 36.203125 6.6875 
C 36.203125 2.875 35.796875 2.390625 29.40625 2.390625 
L 29.40625 -0.203125 
C 31.796875 0 36.203125 0 38.796875 0 
C 41.40625 0 45.90625 0 48.296875 -0.203125 
L 48.296875 2.390625 
C 41.90625 2.390625 41.5 2.78125 41.5 6.6875 
L 41.5 25.90625 
C 41.5 35.109375 47.09375 42 54.09375 42 
C 61.5 42 62.296875 35.40625 62.296875 30.59375 
L 62.296875 6.6875 
C 62.296875 2.875 61.90625 2.390625 55.5 2.390625 
L 55.5 -0.203125 
C 57.90625 0 62.296875 0 64.90625 0 
C 67.5 0 72 0 74.40625 -0.203125 
L 74.40625 2.390625 
C 68 2.390625 67.59375 2.78125 67.59375 6.6875 
z
" id="CMR17-109"/>
      <path d="M 22 -16.609375 
C 15.59375 -16.609375 15.203125 -16.203125 15.203125 -12.328125 
L 15.203125 6.28125 
C 18.09375 2.09375 22.296875 -0.59375 27.59375 -0.59375 
C 37.59375 -0.59375 47.703125 8.171875 47.703125 21.6875 
C 47.703125 34.234375 39 43.78125 28.703125 43.78125 
C 22.703125 43.78125 17.796875 40.5 15 36.53125 
L 15 43.78125 
L 3.09375 42.6875 
L 3.09375 40.109375 
C 9 40.109375 9.90625 39.5 9.90625 34.734375 
L 9.90625 -12.328125 
C 9.90625 -16.109375 9.5 -16.609375 3.09375 -16.609375 
L 3.09375 -19.1875 
C 5.5 -19 9.90625 -19 12.5 -19 
C 15.09375 -19 19.59375 -19 22 -19.1875 
z
M 15.203125 31.4375 
C 15.203125 32.84375 15.203125 34.921875 19.09375 38.609375 
C 19.59375 39.015625 23 42 28 42 
C 35.296875 42 41.296875 32.9375 41.296875 21.59375 
C 41.296875 10.25 34.90625 1 27 1 
C 23.40625 1 19.5 2.6875 16.5 7.375 
C 15.203125 9.5625 15.203125 10.15625 15.203125 11.75 
z
" id="CMR17-112"/>
      <path d="M 15.296875 68.6875 
L 3.40625 67.59375 
L 3.40625 65 
C 9.296875 65 10.203125 64.40625 10.203125 59.640625 
L 10.203125 6.65625 
C 10.203125 2.875 9.796875 2.390625 3.40625 2.390625 
L 3.40625 -0.203125 
C 5.796875 0 10.203125 0 12.703125 0 
C 15.296875 0 19.703125 0 22.09375 -0.203125 
L 22.09375 2.390625 
C 15.703125 2.390625 15.296875 2.78125 15.296875 6.65625 
z
" id="CMR17-108"/>
     </defs>
     <g transform="translate(93.916571 115.669913)scale(0.11 -0.11)">
      <use transform="scale(0.996264)" xlink:href="#CMR17-49"/>
      <use transform="translate(75.766443 0)scale(0.996264)" xlink:href="#CMR17-115"/>
      <use transform="translate(111.567781 0)scale(0.996264)" xlink:href="#CMR17-97"/>
      <use transform="translate(157.258258 0)scale(0.996264)" xlink:href="#CMR17-109"/>
      <use transform="translate(234.177848 0)scale(0.996264)" xlink:href="#CMR17-112"/>
      <use transform="translate(285.073218 0)scale(0.996264)" xlink:href="#CMR17-108"/>
      <use transform="translate(309.944276 0)scale(0.996264)" xlink:href="#CMR17-101"/>
     </g>
    </g>
    <g id="patch_69">
     <path d="M 63.116571 131.000808 
L 85.116571 131.000808 
L 85.116571 123.300808 
L 63.116571 123.300808 
z
" style="fill:#0000ff;"/>
    </g>
    <g id="text_28">
     <!-- 10 samples -->
     <g transform="translate(93.916571 131.000808)scale(0.11 -0.11)">
      <use transform="scale(0.996264)" xlink:href="#CMR17-49"/>
      <use transform="translate(45.690477 0)scale(0.996264)" xlink:href="#CMR17-48"/>
      <use transform="translate(121.456921 0)scale(0.996264)" xlink:href="#CMR17-115"/>
      <use transform="translate(157.258258 0)scale(0.996264)" xlink:href="#CMR17-97"/>
      <use transform="translate(202.948735 0)scale(0.996264)" xlink:href="#CMR17-109"/>
      <use transform="translate(279.868325 0)scale(0.996264)" xlink:href="#CMR17-112"/>
      <use transform="translate(330.763695 0)scale(0.996264)" xlink:href="#CMR17-108"/>
      <use transform="translate(355.634753 0)scale(0.996264)" xlink:href="#CMR17-101"/>
      <use transform="translate(396.120414 0)scale(0.996264)" xlink:href="#CMR17-115"/>
     </g>
    </g>
    <g id="patch_70">
     <path d="M 63.116571 146.331703 
L 85.116571 146.331703 
L 85.116571 138.631703 
L 63.116571 138.631703 
z
" style="fill:#ffa500;"/>
    </g>
    <g id="text_29">
     <!-- baseline -->
     <defs>
      <path d="M 15 68.6875 
L 3.09375 67.59375 
L 3.09375 65 
C 9 65 9.90625 64.40625 9.90625 59.640625 
L 9.90625 -0.203125 
L 11.703125 -0.203125 
L 14.59375 6.890625 
C 17.5 2.203125 21.796875 -1 27.59375 -1 
C 37.59375 -1 47.703125 7.8125 47.703125 21.40625 
C 47.703125 34.1875 38.703125 43.59375 28.59375 43.59375 
C 22.40625 43.59375 18 40.296875 15 36.40625 
z
M 15.203125 31.3125 
C 15.203125 33.09375 15.203125 33.40625 16.59375 35.5 
C 20.5 41.515625 26.09375 42 28 42 
C 31 42 41.296875 40.390625 41.296875 21.5 
C 41.296875 1.6875 29.5 0.59375 27.09375 0.59375 
C 24 0.59375 19.5 1.78125 16.296875 7.59375 
C 15.203125 9.5 15.203125 9.703125 15.203125 11.484375 
z
" id="CMR17-98"/>
     </defs>
     <g transform="translate(93.916571 146.331703)scale(0.11 -0.11)">
      <use transform="scale(0.996264)" xlink:href="#CMR17-98"/>
      <use transform="translate(50.89537 0)scale(0.996264)" xlink:href="#CMR17-97"/>
      <use transform="translate(96.585847 0)scale(0.996264)" xlink:href="#CMR17-115"/>
      <use transform="translate(132.387185 0)scale(0.996264)" xlink:href="#CMR17-101"/>
      <use transform="translate(172.872845 0)scale(0.996264)" xlink:href="#CMR17-108"/>
      <use transform="translate(197.743903 0)scale(0.996264)" xlink:href="#CMR17-105"/>
      <use transform="translate(222.614962 0)scale(0.996264)" xlink:href="#CMR17-110"/>
      <use transform="translate(273.510332 0)scale(0.996264)" xlink:href="#CMR17-101"/>
     </g>
    </g>
   </g>
  </g>
  <g id="axes_2">
   <g id="patch_71">
    <path d="M 53.216571 311.862857 
L 585.382286 311.862857 
L 585.382286 183.945974 
L 53.216571 183.945974 
z
" style="fill:#ffffff;"/>
   </g>
   <g id="patch_72">
    <path clip-path="url(#p9294405e13)" d="M 77.405922 311.862857 
L 83.529808 311.862857 
L 83.529808 303.580575 
L 77.405922 303.580575 
z
" style="fill:#ff0000;"/>
   </g>
   <g id="patch_73">
    <path clip-path="url(#p9294405e13)" d="M 101.901467 311.862857 
L 108.025353 311.862857 
L 108.025353 303.052783 
L 101.901467 303.052783 
z
" style="fill:#ff0000;"/>
   </g>
   <g id="patch_74">
    <path clip-path="url(#p9294405e13)" d="M 126.397012 311.862857 
L 132.520898 311.862857 
L 132.520898 299.02532 
L 126.397012 299.02532 
z
" style="fill:#ff0000;"/>
   </g>
   <g id="patch_75">
    <path clip-path="url(#p9294405e13)" d="M 150.892557 311.862857 
L 157.016443 311.862857 
L 157.016443 306.727842 
L 150.892557 306.727842 
z
" style="fill:#ff0000;"/>
   </g>
   <g id="patch_76">
    <path clip-path="url(#p9294405e13)" d="M 175.388102 311.862857 
L 181.511988 311.862857 
L 181.511988 254.665912 
L 175.388102 254.665912 
z
" style="fill:#ff0000;"/>
   </g>
   <g id="patch_77">
    <path clip-path="url(#p9294405e13)" d="M 199.883647 311.862857 
L 206.007533 311.862857 
L 206.007533 294.307251 
L 199.883647 294.307251 
z
" style="fill:#ff0000;"/>
   </g>
   <g id="patch_78">
    <path clip-path="url(#p9294405e13)" d="M 224.379192 311.862857 
L 230.503078 311.862857 
L 230.503078 281.003394 
L 224.379192 281.003394 
z
" style="fill:#ff0000;"/>
   </g>
   <g id="patch_79">
    <path clip-path="url(#p9294405e13)" d="M 248.874737 311.862857 
L 254.998623 311.862857 
L 254.998623 303.464469 
L 248.874737 303.464469 
z
" style="fill:#ff0000;"/>
   </g>
   <g id="patch_80">
    <path clip-path="url(#p9294405e13)" d="M 273.370282 311.862857 
L 279.494168 311.862857 
L 279.494168 302.264699 
L 273.370282 302.264699 
z
" style="fill:#ff0000;"/>
   </g>
   <g id="patch_81">
    <path clip-path="url(#p9294405e13)" d="M 297.865827 311.862857 
L 303.989713 311.862857 
L 303.989713 303.922113 
L 297.865827 303.922113 
z
" style="fill:#ff0000;"/>
   </g>
   <g id="patch_82">
    <path clip-path="url(#p9294405e13)" d="M 322.361372 311.862857 
L 328.485258 311.862857 
L 328.485258 297.881382 
L 322.361372 297.881382 
z
" style="fill:#ff0000;"/>
   </g>
   <g id="patch_83">
    <path clip-path="url(#p9294405e13)" d="M 346.856917 311.862857 
L 352.980803 311.862857 
L 352.980803 304.236598 
L 346.856917 304.236598 
z
" style="fill:#ff0000;"/>
   </g>
   <g id="patch_84">
    <path clip-path="url(#p9294405e13)" d="M 371.352462 311.862857 
L 377.476348 311.862857 
L 377.476348 279.086168 
L 371.352462 279.086168 
z
" style="fill:#ff0000;"/>
   </g>
   <g id="patch_85">
    <path clip-path="url(#p9294405e13)" d="M 395.848007 311.862857 
L 401.971893 311.862857 
L 401.971893 274.471974 
L 395.848007 274.471974 
z
" style="fill:#ff0000;"/>
   </g>
   <g id="patch_86">
    <path clip-path="url(#p9294405e13)" d="M 420.343552 311.862857 
L 426.467438 311.862857 
L 426.467438 293.111399 
L 420.343552 293.111399 
z
" style="fill:#ff0000;"/>
   </g>
   <g id="patch_87">
    <path clip-path="url(#p9294405e13)" d="M 444.839096 311.862857 
L 450.962983 311.862857 
L 450.962983 298.76333 
L 444.839096 298.76333 
z
" style="fill:#ff0000;"/>
   </g>
   <g id="patch_88">
    <path clip-path="url(#p9294405e13)" d="M 469.334641 311.862857 
L 475.458528 311.862857 
L 475.458528 268.24016 
L 469.334641 268.24016 
z
" style="fill:#ff0000;"/>
   </g>
   <g id="patch_89">
    <path clip-path="url(#p9294405e13)" d="M 493.830186 311.862857 
L 499.954073 311.862857 
L 499.954073 305.17664 
L 493.830186 305.17664 
z
" style="fill:#ff0000;"/>
   </g>
   <g id="patch_90">
    <path clip-path="url(#p9294405e13)" d="M 518.325731 311.862857 
L 524.449618 311.862857 
L 524.449618 282.874871 
L 518.325731 282.874871 
z
" style="fill:#ff0000;"/>
   </g>
   <g id="patch_91">
    <path clip-path="url(#p9294405e13)" d="M 542.821276 311.862857 
L 548.945163 311.862857 
L 548.945163 258.784581 
L 542.821276 258.784581 
z
" style="fill:#ff0000;"/>
   </g>
   <g id="patch_92">
    <path clip-path="url(#p9294405e13)" d="M 83.529808 311.862857 
L 89.653695 311.862857 
L 89.653695 273.212209 
L 83.529808 273.212209 
z
" style="fill:#0000ff;"/>
   </g>
   <g id="patch_93">
    <path clip-path="url(#p9294405e13)" d="M 108.025353 311.862857 
L 114.14924 311.862857 
L 114.14924 252.709502 
L 108.025353 252.709502 
z
" style="fill:#0000ff;"/>
   </g>
   <g id="patch_94">
    <path clip-path="url(#p9294405e13)" d="M 132.520898 311.862857 
L 138.644784 311.862857 
L 138.644784 273.350247 
L 132.520898 273.350247 
z
" style="fill:#0000ff;"/>
   </g>
   <g id="patch_95">
    <path clip-path="url(#p9294405e13)" d="M 157.016443 311.862857 
L 163.140329 311.862857 
L 163.140329 291.322798 
L 157.016443 291.322798 
z
" style="fill:#0000ff;"/>
   </g>
   <g id="patch_96">
    <path clip-path="url(#p9294405e13)" d="M 181.511988 311.862857 
L 187.635874 311.862857 
L 187.635874 227.974004 
L 181.511988 227.974004 
z
" style="fill:#0000ff;"/>
   </g>
   <g id="patch_97">
    <path clip-path="url(#p9294405e13)" d="M 206.007533 311.862857 
L 212.131419 311.862857 
L 212.131419 231.765406 
L 206.007533 231.765406 
z
" style="fill:#0000ff;"/>
   </g>
   <g id="patch_98">
    <path clip-path="url(#p9294405e13)" d="M 230.503078 311.862857 
L 236.626964 311.862857 
L 236.626964 227.925117 
L 230.503078 227.925117 
z
" style="fill:#0000ff;"/>
   </g>
   <g id="patch_99">
    <path clip-path="url(#p9294405e13)" d="M 254.998623 311.862857 
L 261.122509 311.862857 
L 261.122509 272.270454 
L 254.998623 272.270454 
z
" style="fill:#0000ff;"/>
   </g>
   <g id="patch_100">
    <path clip-path="url(#p9294405e13)" d="M 279.494168 311.862857 
L 285.618054 311.862857 
L 285.618054 239.87667 
L 279.494168 239.87667 
z
" style="fill:#0000ff;"/>
   </g>
   <g id="patch_101">
    <path clip-path="url(#p9294405e13)" d="M 303.989713 311.862857 
L 310.113599 311.862857 
L 310.113599 298.628283 
L 303.989713 298.628283 
z
" style="fill:#0000ff;"/>
   </g>
   <g id="patch_102">
    <path clip-path="url(#p9294405e13)" d="M 328.485258 311.862857 
L 334.609144 311.862857 
L 334.609144 275.002603 
L 328.485258 275.002603 
z
" style="fill:#0000ff;"/>
   </g>
   <g id="patch_103">
    <path clip-path="url(#p9294405e13)" d="M 352.980803 311.862857 
L 359.104689 311.862857 
L 359.104689 280.086776 
L 352.980803 280.086776 
z
" style="fill:#0000ff;"/>
   </g>
   <g id="patch_104">
    <path clip-path="url(#p9294405e13)" d="M 377.476348 311.862857 
L 383.600234 311.862857 
L 383.600234 238.115306 
L 377.476348 238.115306 
z
" style="fill:#0000ff;"/>
   </g>
   <g id="patch_105">
    <path clip-path="url(#p9294405e13)" d="M 401.971893 311.862857 
L 408.095779 311.862857 
L 408.095779 244.559267 
L 401.971893 244.559267 
z
" style="fill:#0000ff;"/>
   </g>
   <g id="patch_106">
    <path clip-path="url(#p9294405e13)" d="M 426.467438 311.862857 
L 432.591324 311.862857 
L 432.591324 265.705422 
L 426.467438 265.705422 
z
" style="fill:#0000ff;"/>
   </g>
   <g id="patch_107">
    <path clip-path="url(#p9294405e13)" d="M 450.962983 311.862857 
L 457.086869 311.862857 
L 457.086869 220.166167 
L 450.962983 220.166167 
z
" style="fill:#0000ff;"/>
   </g>
   <g id="patch_108">
    <path clip-path="url(#p9294405e13)" d="M 475.458528 311.862857 
L 481.582414 311.862857 
L 481.582414 239.573816 
L 475.458528 239.573816 
z
" style="fill:#0000ff;"/>
   </g>
   <g id="patch_109">
    <path clip-path="url(#p9294405e13)" d="M 499.954073 311.862857 
L 506.077959 311.862857 
L 506.077959 246.33793 
L 499.954073 246.33793 
z
" style="fill:#0000ff;"/>
   </g>
   <g id="patch_110">
    <path clip-path="url(#p9294405e13)" d="M 524.449618 311.862857 
L 530.573504 311.862857 
L 530.573504 233.181181 
L 524.449618 233.181181 
z
" style="fill:#0000ff;"/>
   </g>
   <g id="patch_111">
    <path clip-path="url(#p9294405e13)" d="M 548.945163 311.862857 
L 555.069049 311.862857 
L 555.069049 226.690739 
L 548.945163 226.690739 
z
" style="fill:#0000ff;"/>
   </g>
   <g id="patch_112">
    <path clip-path="url(#p9294405e13)" d="M 89.653695 311.862857 
L 95.777581 311.862857 
L 95.777581 212.475477 
L 89.653695 212.475477 
z
" style="fill:#ffa500;"/>
   </g>
   <g id="patch_113">
    <path clip-path="url(#p9294405e13)" d="M 114.14924 311.862857 
L 120.273126 311.862857 
L 120.273126 212.434877 
L 114.14924 212.434877 
z
" style="fill:#ffa500;"/>
   </g>
   <g id="patch_114">
    <path clip-path="url(#p9294405e13)" d="M 138.644784 311.862857 
L 144.768671 311.862857 
L 144.768671 209.162564 
L 138.644784 209.162564 
z
" style="fill:#ffa500;"/>
   </g>
   <g id="patch_115">
    <path clip-path="url(#p9294405e13)" d="M 163.140329 311.862857 
L 169.264216 311.862857 
L 169.264216 225.851362 
L 163.140329 225.851362 
z
" style="fill:#ffa500;"/>
   </g>
   <g id="patch_116">
    <path clip-path="url(#p9294405e13)" d="M 187.635874 311.862857 
L 193.759761 311.862857 
L 193.759761 192.384793 
L 187.635874 192.384793 
z
" style="fill:#ffa500;"/>
   </g>
   <g id="patch_117">
    <path clip-path="url(#p9294405e13)" d="M 212.131419 311.862857 
L 218.255306 311.862857 
L 218.255306 201.043096 
L 212.131419 201.043096 
z
" style="fill:#ffa500;"/>
   </g>
   <g id="patch_118">
    <path clip-path="url(#p9294405e13)" d="M 236.626964 311.862857 
L 242.750851 311.862857 
L 242.750851 195.831276 
L 236.626964 195.831276 
z
" style="fill:#ffa500;"/>
   </g>
   <g id="patch_119">
    <path clip-path="url(#p9294405e13)" d="M 261.122509 311.862857 
L 267.246396 311.862857 
L 267.246396 202.683807 
L 261.122509 202.683807 
z
" style="fill:#ffa500;"/>
   </g>
   <g id="patch_120">
    <path clip-path="url(#p9294405e13)" d="M 285.618054 311.862857 
L 291.74194 311.862857 
L 291.74194 191.885879 
L 285.618054 191.885879 
z
" style="fill:#ffa500;"/>
   </g>
   <g id="patch_121">
    <path clip-path="url(#p9294405e13)" d="M 310.113599 311.862857 
L 316.237485 311.862857 
L 316.237485 248.336903 
L 310.113599 248.336903 
z
" style="fill:#ffa500;"/>
   </g>
   <g id="patch_122">
    <path clip-path="url(#p9294405e13)" d="M 334.609144 311.862857 
L 340.73303 311.862857 
L 340.73303 225.431917 
L 334.609144 225.431917 
z
" style="fill:#ffa500;"/>
   </g>
   <g id="patch_123">
    <path clip-path="url(#p9294405e13)" d="M 359.104689 311.862857 
L 365.228575 311.862857 
L 365.228575 222.889831 
L 359.104689 222.889831 
z
" style="fill:#ffa500;"/>
   </g>
   <g id="patch_124">
    <path clip-path="url(#p9294405e13)" d="M 383.600234 311.862857 
L 389.72412 311.862857 
L 389.72412 193.047358 
L 383.600234 193.047358 
z
" style="fill:#ffa500;"/>
   </g>
   <g id="patch_125">
    <path clip-path="url(#p9294405e13)" d="M 408.095779 311.862857 
L 414.219665 311.862857 
L 414.219665 209.661109 
L 408.095779 209.661109 
z
" style="fill:#ffa500;"/>
   </g>
   <g id="patch_126">
    <path clip-path="url(#p9294405e13)" d="M 432.591324 311.862857 
L 438.71521 311.862857 
L 438.71521 216.663147 
L 432.591324 216.663147 
z
" style="fill:#ffa500;"/>
   </g>
   <g id="patch_127">
    <path clip-path="url(#p9294405e13)" d="M 457.086869 311.862857 
L 463.210755 311.862857 
L 463.210755 190.037254 
L 457.086869 190.037254 
z
" style="fill:#ffa500;"/>
   </g>
   <g id="patch_128">
    <path clip-path="url(#p9294405e13)" d="M 481.582414 311.862857 
L 487.7063 311.862857 
L 487.7063 193.458393 
L 481.582414 193.458393 
z
" style="fill:#ffa500;"/>
   </g>
   <g id="patch_129">
    <path clip-path="url(#p9294405e13)" d="M 506.077959 311.862857 
L 512.201845 311.862857 
L 512.201845 218.255819 
L 506.077959 218.255819 
z
" style="fill:#ffa500;"/>
   </g>
   <g id="patch_130">
    <path clip-path="url(#p9294405e13)" d="M 530.573504 311.862857 
L 536.69739 311.862857 
L 536.69739 204.193195 
L 530.573504 204.193195 
z
" style="fill:#ffa500;"/>
   </g>
   <g id="patch_131">
    <path clip-path="url(#p9294405e13)" d="M 555.069049 311.862857 
L 561.192935 311.862857 
L 561.192935 192.12814 
L 555.069049 192.12814 
z
" style="fill:#ffa500;"/>
   </g>
   <g id="matplotlib.axis_3">
    <g id="xtick_21">
     <g id="line2d_26">
      <g>
       <use style="stroke:#000000;stroke-width:0.8;" x="86.591751" xlink:href="#mb4752357fa" y="311.862857"/>
      </g>
     </g>
     <g id="text_30">
      <!-- 0 -->
      <g transform="translate(83.852018 326.473204)scale(0.11 -0.11)">
       <use transform="scale(0.996264)" xlink:href="#CMR17-48"/>
      </g>
     </g>
    </g>
    <g id="xtick_22">
     <g id="line2d_27">
      <g>
       <use style="stroke:#000000;stroke-width:0.8;" x="111.087296" xlink:href="#mb4752357fa" y="311.862857"/>
      </g>
     </g>
     <g id="text_31">
      <!-- 1 -->
      <g transform="translate(108.347563 326.473204)scale(0.11 -0.11)">
       <use transform="scale(0.996264)" xlink:href="#CMR17-49"/>
      </g>
     </g>
    </g>
    <g id="xtick_23">
     <g id="line2d_28">
      <g>
       <use style="stroke:#000000;stroke-width:0.8;" x="135.582841" xlink:href="#mb4752357fa" y="311.862857"/>
      </g>
     </g>
     <g id="text_32">
      <!-- 2 -->
      <g transform="translate(132.843108 326.473204)scale(0.11 -0.11)">
       <use transform="scale(0.996264)" xlink:href="#CMR17-50"/>
      </g>
     </g>
    </g>
    <g id="xtick_24">
     <g id="line2d_29">
      <g>
       <use style="stroke:#000000;stroke-width:0.8;" x="160.078386" xlink:href="#mb4752357fa" y="311.862857"/>
      </g>
     </g>
     <g id="text_33">
      <!-- 3 -->
      <g transform="translate(157.338653 326.473204)scale(0.11 -0.11)">
       <use transform="scale(0.996264)" xlink:href="#CMR17-51"/>
      </g>
     </g>
    </g>
    <g id="xtick_25">
     <g id="line2d_30">
      <g>
       <use style="stroke:#000000;stroke-width:0.8;" x="184.573931" xlink:href="#mb4752357fa" y="311.862857"/>
      </g>
     </g>
     <g id="text_34">
      <!-- 4 -->
      <g transform="translate(181.834198 326.473204)scale(0.11 -0.11)">
       <use transform="scale(0.996264)" xlink:href="#CMR17-52"/>
      </g>
     </g>
    </g>
    <g id="xtick_26">
     <g id="line2d_31">
      <g>
       <use style="stroke:#000000;stroke-width:0.8;" x="209.069476" xlink:href="#mb4752357fa" y="311.862857"/>
      </g>
     </g>
     <g id="text_35">
      <!-- 5 -->
      <g transform="translate(206.329743 326.473204)scale(0.11 -0.11)">
       <use transform="scale(0.996264)" xlink:href="#CMR17-53"/>
      </g>
     </g>
    </g>
    <g id="xtick_27">
     <g id="line2d_32">
      <g>
       <use style="stroke:#000000;stroke-width:0.8;" x="233.565021" xlink:href="#mb4752357fa" y="311.862857"/>
      </g>
     </g>
     <g id="text_36">
      <!-- 6 -->
      <g transform="translate(230.825288 326.473204)scale(0.11 -0.11)">
       <use transform="scale(0.996264)" xlink:href="#CMR17-54"/>
      </g>
     </g>
    </g>
    <g id="xtick_28">
     <g id="line2d_33">
      <g>
       <use style="stroke:#000000;stroke-width:0.8;" x="258.060566" xlink:href="#mb4752357fa" y="311.862857"/>
      </g>
     </g>
     <g id="text_37">
      <!-- 7 -->
      <g transform="translate(255.320833 326.473204)scale(0.11 -0.11)">
       <use transform="scale(0.996264)" xlink:href="#CMR17-55"/>
      </g>
     </g>
    </g>
    <g id="xtick_29">
     <g id="line2d_34">
      <g>
       <use style="stroke:#000000;stroke-width:0.8;" x="282.556111" xlink:href="#mb4752357fa" y="311.862857"/>
      </g>
     </g>
     <g id="text_38">
      <!-- 8 -->
      <g transform="translate(279.816378 326.473204)scale(0.11 -0.11)">
       <use transform="scale(0.996264)" xlink:href="#CMR17-56"/>
      </g>
     </g>
    </g>
    <g id="xtick_30">
     <g id="line2d_35">
      <g>
       <use style="stroke:#000000;stroke-width:0.8;" x="307.051656" xlink:href="#mb4752357fa" y="311.862857"/>
      </g>
     </g>
     <g id="text_39">
      <!-- 9 -->
      <g transform="translate(304.311922 326.473204)scale(0.11 -0.11)">
       <use transform="scale(0.996264)" xlink:href="#CMR17-57"/>
      </g>
     </g>
    </g>
    <g id="xtick_31">
     <g id="line2d_36">
      <g>
       <use style="stroke:#000000;stroke-width:0.8;" x="331.547201" xlink:href="#mb4752357fa" y="311.862857"/>
      </g>
     </g>
     <g id="text_40">
      <!-- 10 -->
      <g transform="translate(326.067734 326.473204)scale(0.11 -0.11)">
       <use transform="scale(0.996264)" xlink:href="#CMR17-49"/>
       <use transform="translate(45.690477 0)scale(0.996264)" xlink:href="#CMR17-48"/>
      </g>
     </g>
    </g>
    <g id="xtick_32">
     <g id="line2d_37">
      <g>
       <use style="stroke:#000000;stroke-width:0.8;" x="356.042746" xlink:href="#mb4752357fa" y="311.862857"/>
      </g>
     </g>
     <g id="text_41">
      <!-- 11 -->
      <g transform="translate(350.563279 326.473204)scale(0.11 -0.11)">
       <use transform="scale(0.996264)" xlink:href="#CMR17-49"/>
       <use transform="translate(45.690477 0)scale(0.996264)" xlink:href="#CMR17-49"/>
      </g>
     </g>
    </g>
    <g id="xtick_33">
     <g id="line2d_38">
      <g>
       <use style="stroke:#000000;stroke-width:0.8;" x="380.538291" xlink:href="#mb4752357fa" y="311.862857"/>
      </g>
     </g>
     <g id="text_42">
      <!-- 12 -->
      <g transform="translate(375.058824 326.473204)scale(0.11 -0.11)">
       <use transform="scale(0.996264)" xlink:href="#CMR17-49"/>
       <use transform="translate(45.690477 0)scale(0.996264)" xlink:href="#CMR17-50"/>
      </g>
     </g>
    </g>
    <g id="xtick_34">
     <g id="line2d_39">
      <g>
       <use style="stroke:#000000;stroke-width:0.8;" x="405.033836" xlink:href="#mb4752357fa" y="311.862857"/>
      </g>
     </g>
     <g id="text_43">
      <!-- 13 -->
      <g transform="translate(399.554369 326.473204)scale(0.11 -0.11)">
       <use transform="scale(0.996264)" xlink:href="#CMR17-49"/>
       <use transform="translate(45.690477 0)scale(0.996264)" xlink:href="#CMR17-51"/>
      </g>
     </g>
    </g>
    <g id="xtick_35">
     <g id="line2d_40">
      <g>
       <use style="stroke:#000000;stroke-width:0.8;" x="429.529381" xlink:href="#mb4752357fa" y="311.862857"/>
      </g>
     </g>
     <g id="text_44">
      <!-- 14 -->
      <g transform="translate(424.049914 326.473204)scale(0.11 -0.11)">
       <use transform="scale(0.996264)" xlink:href="#CMR17-49"/>
       <use transform="translate(45.690477 0)scale(0.996264)" xlink:href="#CMR17-52"/>
      </g>
     </g>
    </g>
    <g id="xtick_36">
     <g id="line2d_41">
      <g>
       <use style="stroke:#000000;stroke-width:0.8;" x="454.024926" xlink:href="#mb4752357fa" y="311.862857"/>
      </g>
     </g>
     <g id="text_45">
      <!-- 15 -->
      <g transform="translate(448.545459 326.473204)scale(0.11 -0.11)">
       <use transform="scale(0.996264)" xlink:href="#CMR17-49"/>
       <use transform="translate(45.690477 0)scale(0.996264)" xlink:href="#CMR17-53"/>
      </g>
     </g>
    </g>
    <g id="xtick_37">
     <g id="line2d_42">
      <g>
       <use style="stroke:#000000;stroke-width:0.8;" x="478.520471" xlink:href="#mb4752357fa" y="311.862857"/>
      </g>
     </g>
     <g id="text_46">
      <!-- 16 -->
      <g transform="translate(473.041004 326.473204)scale(0.11 -0.11)">
       <use transform="scale(0.996264)" xlink:href="#CMR17-49"/>
       <use transform="translate(45.690477 0)scale(0.996264)" xlink:href="#CMR17-54"/>
      </g>
     </g>
    </g>
    <g id="xtick_38">
     <g id="line2d_43">
      <g>
       <use style="stroke:#000000;stroke-width:0.8;" x="503.016016" xlink:href="#mb4752357fa" y="311.862857"/>
      </g>
     </g>
     <g id="text_47">
      <!-- 17 -->
      <g transform="translate(497.536549 326.473204)scale(0.11 -0.11)">
       <use transform="scale(0.996264)" xlink:href="#CMR17-49"/>
       <use transform="translate(45.690477 0)scale(0.996264)" xlink:href="#CMR17-55"/>
      </g>
     </g>
    </g>
    <g id="xtick_39">
     <g id="line2d_44">
      <g>
       <use style="stroke:#000000;stroke-width:0.8;" x="527.511561" xlink:href="#mb4752357fa" y="311.862857"/>
      </g>
     </g>
     <g id="text_48">
      <!-- 18 -->
      <g transform="translate(522.032093 326.473204)scale(0.11 -0.11)">
       <use transform="scale(0.996264)" xlink:href="#CMR17-49"/>
       <use transform="translate(45.690477 0)scale(0.996264)" xlink:href="#CMR17-56"/>
      </g>
     </g>
    </g>
    <g id="xtick_40">
     <g id="line2d_45">
      <g>
       <use style="stroke:#000000;stroke-width:0.8;" x="552.007106" xlink:href="#mb4752357fa" y="311.862857"/>
      </g>
     </g>
     <g id="text_49">
      <!-- 19 -->
      <g transform="translate(546.527638 326.473204)scale(0.11 -0.11)">
       <use transform="scale(0.996264)" xlink:href="#CMR17-49"/>
       <use transform="translate(45.690477 0)scale(0.996264)" xlink:href="#CMR17-57"/>
      </g>
     </g>
    </g>
    <g id="text_50">
     <!-- Klassenummer -->
     <defs>
      <path d="M 36.90625 41.796875 
L 54.203125 59.09375 
C 57.796875 62.59375 61.59375 65.40625 67.203125 65.40625 
L 67.203125 68 
C 65.203125 68 62.703125 68 60.703125 68 
C 58 68 53.296875 68 50.703125 68.09375 
L 50.703125 65.5 
C 53.296875 65.3125 53.703125 63.515625 53.703125 62.796875 
C 53.703125 62.109375 53.296875 61.015625 52.90625 60.421875 
L 19.703125 27.15625 
L 19.703125 60.9375 
C 19.703125 65.40625 20.796875 65.40625 27.703125 65.40625 
L 27.703125 68 
C 24.796875 68 19.5 68 16.40625 68 
C 13.296875 68 8 68 5.09375 68 
L 5.09375 65.40625 
C 12 65.40625 13.09375 65.40625 13.09375 60.921875 
L 13.09375 6.96875 
C 13.09375 2.5 12 2.5 5.09375 2.5 
L 5.09375 0 
C 8 0 13.296875 0 16.40625 0 
C 19.5 0 24.796875 0 27.703125 0 
L 27.703125 2.5 
C 20.796875 2.5 19.703125 2.5 19.703125 6.984375 
L 19.703125 24.671875 
L 32.5 37.34375 
L 51.40625 8.390625 
C 52 7.390625 52.703125 6.09375 52.703125 5.09375 
C 52.703125 2.5 49.90625 2.5 48.59375 2.5 
L 48.59375 0 
C 51.796875 0 56.40625 0 59.703125 0 
C 62.09375 0 66.203125 0 68.5 -0.09375 
L 68.5 2.5 
C 63.703125 2.5 62.203125 3.09375 59.203125 7.703125 
z
" id="CMR17-75"/>
      <path d="M 29.40625 42.078125 
L 29.40625 39.5 
C 35.296875 39.5 36.203125 38.890625 36.203125 34.15625 
L 36.203125 16.125 
C 36.203125 7.8125 31.703125 0.59375 24.296875 0.59375 
C 16.09375 0.59375 15.40625 5.4375 15.40625 10.59375 
L 15.40625 43.171875 
L 3.296875 42.078125 
L 3.296875 39.5 
C 7.296875 39.5 10 39.5 10.09375 35.53125 
L 10.09375 16.53125 
C 10.09375 9.890625 10.09375 5.640625 12.703125 2.859375 
C 14 1.578125 16.5 -1 23.703125 -1 
C 32.203125 -1 35.5 5.890625 36.296875 7.90625 
L 36.40625 7.90625 
L 36.40625 -0.984375 
L 48.296875 -0.984375 
L 48.296875 2 
C 42.40625 2 41.5 2.59375 41.5 7.390625 
L 41.5 43.171875 
z
" id="CMR17-117"/>
     </defs>
     <g transform="translate(284.367846 340.214445)scale(0.11 -0.11)">
      <use transform="scale(0.996264)" xlink:href="#CMR17-75"/>
      <use transform="translate(71.674777 0)scale(0.996264)" xlink:href="#CMR17-108"/>
      <use transform="translate(96.545836 0)scale(0.996264)" xlink:href="#CMR17-97"/>
      <use transform="translate(142.236313 0)scale(0.996264)" xlink:href="#CMR17-115"/>
      <use transform="translate(178.037651 0)scale(0.996264)" xlink:href="#CMR17-115"/>
      <use transform="translate(213.838988 0)scale(0.996264)" xlink:href="#CMR17-101"/>
      <use transform="translate(254.324649 0)scale(0.996264)" xlink:href="#CMR17-110"/>
      <use transform="translate(302.617565 0)scale(0.996264)" xlink:href="#CMR17-117"/>
      <use transform="translate(353.512934 0)scale(0.996264)" xlink:href="#CMR17-109"/>
      <use transform="translate(430.432524 0)scale(0.996264)" xlink:href="#CMR17-109"/>
      <use transform="translate(507.352114 0)scale(0.996264)" xlink:href="#CMR17-101"/>
      <use transform="translate(547.837774 0)scale(0.996264)" xlink:href="#CMR17-114"/>
     </g>
    </g>
   </g>
   <g id="matplotlib.axis_4">
    <g id="ytick_6">
     <g id="line2d_46">
      <g>
       <use style="stroke:#000000;stroke-width:0.8;" x="53.216571" xlink:href="#me4ab102063" y="311.862857"/>
      </g>
     </g>
     <g id="text_51">
      <!-- $0.0$ -->
      <g transform="translate(32.213495 315.66803)scale(0.11 -0.11)">
       <use transform="scale(0.996264)" xlink:href="#CMR17-48"/>
       <use transform="translate(45.690477 0)scale(0.996264)" xlink:href="#CMMI12-58"/>
       <use transform="translate(72.787654 0)scale(0.996264)" xlink:href="#CMR17-48"/>
      </g>
     </g>
    </g>
    <g id="ytick_7">
     <g id="line2d_47">
      <g>
       <use style="stroke:#000000;stroke-width:0.8;" x="53.216571" xlink:href="#me4ab102063" y="286.187784"/>
      </g>
     </g>
     <g id="text_52">
      <!-- $0.2$ -->
      <g transform="translate(32.213495 289.992957)scale(0.11 -0.11)">
       <use transform="scale(0.996264)" xlink:href="#CMR17-48"/>
       <use transform="translate(45.690477 0)scale(0.996264)" xlink:href="#CMMI12-58"/>
       <use transform="translate(72.787654 0)scale(0.996264)" xlink:href="#CMR17-50"/>
      </g>
     </g>
    </g>
    <g id="ytick_8">
     <g id="line2d_48">
      <g>
       <use style="stroke:#000000;stroke-width:0.8;" x="53.216571" xlink:href="#me4ab102063" y="260.512711"/>
      </g>
     </g>
     <g id="text_53">
      <!-- $0.4$ -->
      <g transform="translate(32.213495 264.317884)scale(0.11 -0.11)">
       <use transform="scale(0.996264)" xlink:href="#CMR17-48"/>
       <use transform="translate(45.690477 0)scale(0.996264)" xlink:href="#CMMI12-58"/>
       <use transform="translate(72.787654 0)scale(0.996264)" xlink:href="#CMR17-52"/>
      </g>
     </g>
    </g>
    <g id="ytick_9">
     <g id="line2d_49">
      <g>
       <use style="stroke:#000000;stroke-width:0.8;" x="53.216571" xlink:href="#me4ab102063" y="234.837637"/>
      </g>
     </g>
     <g id="text_54">
      <!-- $0.6$ -->
      <g transform="translate(32.213495 238.642811)scale(0.11 -0.11)">
       <use transform="scale(0.996264)" xlink:href="#CMR17-48"/>
       <use transform="translate(45.690477 0)scale(0.996264)" xlink:href="#CMMI12-58"/>
       <use transform="translate(72.787654 0)scale(0.996264)" xlink:href="#CMR17-54"/>
      </g>
     </g>
    </g>
    <g id="ytick_10">
     <g id="line2d_50">
      <g>
       <use style="stroke:#000000;stroke-width:0.8;" x="53.216571" xlink:href="#me4ab102063" y="209.162564"/>
      </g>
     </g>
     <g id="text_55">
      <!-- $0.8$ -->
      <g transform="translate(32.213495 212.967737)scale(0.11 -0.11)">
       <use transform="scale(0.996264)" xlink:href="#CMR17-48"/>
       <use transform="translate(45.690477 0)scale(0.996264)" xlink:href="#CMMI12-58"/>
       <use transform="translate(72.787654 0)scale(0.996264)" xlink:href="#CMR17-56"/>
      </g>
     </g>
    </g>
    <g id="ytick_11">
     <g id="line2d_51">
      <g>
       <use style="stroke:#000000;stroke-width:0.8;" x="53.216571" xlink:href="#me4ab102063" y="183.487491"/>
      </g>
     </g>
     <g id="text_56">
      <!-- $1.0$ -->
      <g transform="translate(32.213495 187.292664)scale(0.11 -0.11)">
       <use transform="scale(0.996264)" xlink:href="#CMR17-49"/>
       <use transform="translate(45.690477 0)scale(0.996264)" xlink:href="#CMMI12-58"/>
       <use transform="translate(72.787654 0)scale(0.996264)" xlink:href="#CMR17-48"/>
      </g>
     </g>
    </g>
    <g id="text_57">
     <!-- Recall -->
     <defs>
      <path d="M 39.203125 33.53125 
C 48.703125 35.4375 56.703125 41.8125 56.703125 49.78125 
C 56.703125 59.140625 46.09375 67.59375 32.09375 67.59375 
L 5.203125 67.59375 
L 5.203125 65 
C 12.09375 65 13.203125 65 13.203125 60.515625 
L 13.203125 6.484375 
C 13.203125 2 12.09375 2 5.203125 2 
L 5.203125 -0.40625 
C 8.09375 -0.40625 13.296875 -0.40625 16.40625 -0.40625 
C 19.5 -0.40625 24.703125 -0.40625 27.59375 -0.40625 
L 27.59375 2 
C 20.703125 2 19.59375 2 19.59375 6.515625 
L 19.59375 33 
L 31.296875 33 
C 37 33 40.203125 30.6875 41.59375 29.390625 
C 45.59375 25.5 45.59375 22.796875 45.59375 16 
C 45.59375 9.296875 45.59375 5.890625 48.59375 2.5 
C 52.40625 -1.59375 57.5 -2 59.703125 -2 
C 67.09375 -2 68.203125 6.1875 68.203125 7.859375 
C 68.203125 8.4375 68.203125 9.140625 67.296875 9.140625 
C 66.5 9.140625 66.40625 8.546875 66.40625 8.15625 
C 65.90625 1.75 63 -0.40625 59.90625 -0.40625 
C 54.40625 -0.40625 53.796875 5.859375 53.203125 11.9375 
C 52.90625 14.03125 52.703125 15.515625 52.5 17.703125 
C 51.90625 22.6875 51.09375 29.953125 39.203125 33.53125 
M 31 34.59375 
L 19.59375 34.59375 
L 19.59375 61.140625 
C 19.59375 64.515625 19.796875 65 23.796875 65 
L 31.09375 65 
C 39.40625 65 49.09375 62.140625 49.09375 49.84375 
C 49.09375 37.0625 38.5 34.59375 31 34.59375 
" id="CMR17-82"/>
     </defs>
     <g transform="translate(26.082601 262.592416)rotate(-90)scale(0.11 -0.11)">
      <use transform="scale(0.996264)" xlink:href="#CMR17-82"/>
      <use transform="translate(67.791102 0)scale(0.996264)" xlink:href="#CMR17-101"/>
      <use transform="translate(108.276762 0)scale(0.996264)" xlink:href="#CMR17-99"/>
      <use transform="translate(148.762423 0)scale(0.996264)" xlink:href="#CMR17-97"/>
      <use transform="translate(194.4529 0)scale(0.996264)" xlink:href="#CMR17-108"/>
      <use transform="translate(219.323958 0)scale(0.996264)" xlink:href="#CMR17-108"/>
     </g>
    </g>
   </g>
   <g id="patch_132">
    <path d="M 53.216571 311.862857 
L 53.216571 183.945974 
" style="fill:none;stroke:#000000;stroke-linecap:square;stroke-linejoin:miter;stroke-width:0.8;"/>
   </g>
   <g id="patch_133">
    <path d="M 585.382286 311.862857 
L 585.382286 183.945974 
" style="fill:none;stroke:#000000;stroke-linecap:square;stroke-linejoin:miter;stroke-width:0.8;"/>
   </g>
   <g id="patch_134">
    <path d="M 53.216571 311.862857 
L 585.382286 311.862857 
" style="fill:none;stroke:#000000;stroke-linecap:square;stroke-linejoin:miter;stroke-width:0.8;"/>
   </g>
   <g id="patch_135">
    <path d="M 53.216571 183.945974 
L 585.382286 183.945974 
" style="fill:none;stroke:#000000;stroke-linecap:square;stroke-linejoin:miter;stroke-width:0.8;"/>
   </g>
  </g>
 </g>
 <defs>
  <clipPath id="pce0e461b59">
   <rect height="127.916883" width="532.165714" x="53.216571" y="30.445714"/>
  </clipPath>
  <clipPath id="p9294405e13">
   <rect height="127.916883" width="532.165714" x="53.216571" y="183.945974"/>
  </clipPath>
 </defs>
</svg>
