<?xml version="1.0" encoding="UTF-8" standalone="no"?>
<!-- Generator: Adobe Illustrator 19.0.0, SVG Export Plug-In . SVG Version: 6.00 Build 0)  -->

<svg
   xmlns:dc="http://purl.org/dc/elements/1.1/"
   xmlns:cc="http://creativecommons.org/ns#"
   xmlns:rdf="http://www.w3.org/1999/02/22-rdf-syntax-ns#"
   xmlns:svg="http://www.w3.org/2000/svg"
   xmlns="http://www.w3.org/2000/svg"
   xmlns:sodipodi="http://sodipodi.sourceforge.net/DTD/sodipodi-0.dtd"
   xmlns:inkscape="http://www.inkscape.org/namespaces/inkscape"
   version="1.1"
   id="Layer_1"
   x="0px"
   y="0px"
   viewBox="0 0 1339.9 595.3"
   style="enable-background:new 0 0 1339.9 595.3;"
   xml:space="preserve"
   inkscape:version="0.92.1 r15371"
   width="100%"
   height="100%"
   sodipodi:docname="First-model.svg"><metadata
   id="metadata3593"><rdf:RDF><cc:Work
       rdf:about=""><dc:format>image/svg+xml</dc:format><dc:type
         rdf:resource="http://purl.org/dc/dcmitype/StillImage" /><dc:title></dc:title></cc:Work></rdf:RDF></metadata><defs
   id="defs3591"><inkscape:perspective
     sodipodi:type="inkscape:persp3d"
     inkscape:vp_x="10.911238 : 224.54471 : 1"
     inkscape:vp_y="0 : 1000 : 0"
     inkscape:vp_z="1339.9 : 297.65 : 1"
     inkscape:persp3d-origin="669.95 : 198.43333 : 1"
     id="perspective4398" /></defs><sodipodi:namedview
   pagecolor="#ffffff"
   bordercolor="#666666"
   borderopacity="1"
   objecttolerance="10"
   gridtolerance="10"
   guidetolerance="10"
   inkscape:pageopacity="0"
   inkscape:pageshadow="2"
   inkscape:window-width="1360"
   inkscape:window-height="715"
   id="namedview3589"
   showgrid="false"
   inkscape:zoom="0.9164863"
   inkscape:cx="615.55041"
   inkscape:cy="311.82639"
   inkscape:window-x="1358"
   inkscape:window-y="-8"
   inkscape:window-maximized="1"
   inkscape:current-layer="Layer_1" /><style
   type="text/css"
   id="style3310">
	.st0{fill:#FFFFFF;stroke:#000000;stroke-miterlimit:10;}
	.st1{fill:#E6E7E8;stroke:#000000;stroke-miterlimit:10;}
	.st2{fill:#ED1C24;stroke:#000000;stroke-miterlimit:10;}
	.st3{fill:none;stroke:#000000;stroke-miterlimit:10;}
	.st4{stroke:#000000;stroke-miterlimit:10;}
	.st5{font-family:'OCRAStd';}
	.st6{font-size:27.7311px;}
	.st7{font-size:14px;}
	.st8{fill:#00AEEF;stroke:#000000;stroke-miterlimit:10;}
	.st9{fill:#2E3192;stroke:#000000;stroke-miterlimit:10;}
	.st10{font-size:8px;}
	.st11{font-size:18px;}
</style><polygon
   id="XMLID_262_"
   class="st0"
   points="194.7,242.9 171.6,215.4 78.7,215.4 78.7,308.3 101.8,335.8 " /><polygon
   id="XMLID_40_"
   class="st1"
   points="763.7,211.5 842.8,201.6 984.5,359.6 887.9,355.9 " /><g
   id="XMLID_107_"><rect
     id="XMLID_183_"
     x="742"
     y="211.5"
     class="st2"
     width="21.6"
     height="21.6" /><rect
     id="XMLID_182_"
     x="745.9"
     y="215.6"
     class="st0"
     width="21.6"
     height="21.6" /><rect
     id="XMLID_181_"
     x="749.8"
     y="219.7"
     class="st2"
     width="21.6"
     height="21.6" /><rect
     id="XMLID_180_"
     x="753.8"
     y="223.6"
     class="st0"
     width="21.6"
     height="21.6" /><rect
     id="XMLID_179_"
     x="757.8"
     y="226.8"
     class="st2"
     width="21.6"
     height="21.6" /><rect
     id="XMLID_178_"
     x="761.8"
     y="231"
     class="st0"
     width="21.6"
     height="21.6" /><rect
     id="XMLID_177_"
     x="765.6"
     y="235.1"
     class="st2"
     width="21.6"
     height="21.6" /><rect
     id="XMLID_176_"
     x="769.7"
     y="239"
     class="st0"
     width="21.6"
     height="21.6" /><rect
     id="XMLID_175_"
     x="774.3"
     y="243.2"
     class="st2"
     width="21.6"
     height="21.6" /><rect
     id="XMLID_174_"
     x="778.2"
     y="247.3"
     class="st0"
     width="21.6"
     height="21.6" /><rect
     id="XMLID_173_"
     x="782"
     y="251.5"
     class="st2"
     width="21.6"
     height="21.6" /><rect
     id="XMLID_172_"
     x="786.1"
     y="255.3"
     class="st0"
     width="21.6"
     height="21.6" /><rect
     id="XMLID_171_"
     x="790.1"
     y="258.6"
     class="st2"
     width="21.6"
     height="21.6" /><rect
     id="XMLID_170_"
     x="794"
     y="262.7"
     class="st0"
     width="21.6"
     height="21.6" /><rect
     id="XMLID_169_"
     x="797.8"
     y="266.8"
     class="st2"
     width="21.6"
     height="21.6" /><rect
     id="XMLID_168_"
     x="801.9"
     y="270.7"
     class="st0"
     width="21.6"
     height="21.6" /><rect
     id="XMLID_167_"
     x="774.3"
     y="243.2"
     class="st2"
     width="21.6"
     height="21.6" /><rect
     id="XMLID_166_"
     x="778.2"
     y="247.3"
     class="st0"
     width="21.6"
     height="21.6" /><rect
     id="XMLID_165_"
     x="782"
     y="251.5"
     class="st2"
     width="21.6"
     height="21.6" /><rect
     id="XMLID_164_"
     x="786.1"
     y="255.3"
     class="st0"
     width="21.6"
     height="21.6" /><rect
     id="XMLID_163_"
     x="790.1"
     y="258.6"
     class="st2"
     width="21.6"
     height="21.6" /><rect
     id="XMLID_162_"
     x="794"
     y="262.7"
     class="st0"
     width="21.6"
     height="21.6" /><rect
     id="XMLID_161_"
     x="797.8"
     y="266.8"
     class="st2"
     width="21.6"
     height="21.6" /><rect
     id="XMLID_160_"
     x="801.9"
     y="270.7"
     class="st0"
     width="21.6"
     height="21.6" /><rect
     id="XMLID_159_"
     x="806.3"
     y="275"
     class="st2"
     width="21.6"
     height="21.6" /><rect
     id="XMLID_158_"
     x="810.2"
     y="279.2"
     class="st0"
     width="21.6"
     height="21.6" /><rect
     id="XMLID_157_"
     x="814.1"
     y="283.3"
     class="st2"
     width="21.6"
     height="21.6" /><rect
     id="XMLID_156_"
     x="818.1"
     y="287.2"
     class="st0"
     width="21.6"
     height="21.6" /><rect
     id="XMLID_155_"
     x="822.1"
     y="290.4"
     class="st2"
     width="21.6"
     height="21.6" /><rect
     id="XMLID_154_"
     x="826.1"
     y="294.5"
     class="st0"
     width="21.6"
     height="21.6" /><rect
     id="XMLID_153_"
     x="829.9"
     y="298.6"
     class="st2"
     width="21.6"
     height="21.6" /><rect
     id="XMLID_152_"
     x="834"
     y="302.5"
     class="st0"
     width="21.6"
     height="21.6" /><rect
     id="XMLID_151_"
     x="838.6"
     y="306.8"
     class="st2"
     width="21.6"
     height="21.6" /><rect
     id="XMLID_150_"
     x="842.5"
     y="310.9"
     class="st0"
     width="21.6"
     height="21.6" /><rect
     id="XMLID_149_"
     x="846.3"
     y="315"
     class="st2"
     width="21.6"
     height="21.6" /><rect
     id="XMLID_148_"
     x="850.4"
     y="318.9"
     class="st0"
     width="21.6"
     height="21.6" /><rect
     id="XMLID_147_"
     x="854.4"
     y="322.1"
     class="st2"
     width="21.6"
     height="21.6" /><rect
     id="XMLID_146_"
     x="858.3"
     y="326.2"
     class="st0"
     width="21.6"
     height="21.6" /><rect
     id="XMLID_145_"
     x="862.1"
     y="330.4"
     class="st2"
     width="21.6"
     height="21.6" /><rect
     id="XMLID_144_"
     x="866.2"
     y="334.2"
     class="st0"
     width="21.6"
     height="21.6" /><rect
     id="XMLID_143_"
     x="838.6"
     y="306.8"
     class="st2"
     width="21.6"
     height="21.6" /><rect
     id="XMLID_142_"
     x="842.5"
     y="310.9"
     class="st0"
     width="21.6"
     height="21.6" /><rect
     id="XMLID_141_"
     x="846.3"
     y="315"
     class="st2"
     width="21.6"
     height="21.6" /><rect
     id="XMLID_140_"
     x="850.4"
     y="318.9"
     class="st0"
     width="21.6"
     height="21.6" /><rect
     id="XMLID_111_"
     x="854.4"
     y="322.1"
     class="st2"
     width="21.6"
     height="21.6" /><rect
     id="XMLID_110_"
     x="858.3"
     y="326.2"
     class="st0"
     width="21.6"
     height="21.6" /><rect
     id="XMLID_109_"
     x="862.1"
     y="330.4"
     class="st2"
     width="21.6"
     height="21.6" /><rect
     id="XMLID_108_"
     x="866.2"
     y="334.2"
     class="st0"
     width="21.6"
     height="21.6" /></g><g
   id="XMLID_118_"><line
     id="XMLID_212_"
     class="st3"
     x1="741.4"
     y1="222.3"
     x2="689.9"
     y2="222.3" /><line
     id="XMLID_214_"
     class="st3"
     x1="746.6"
     y1="226.8"
     x2="704.7"
     y2="226.8" /><line
     id="XMLID_215_"
     class="st3"
     x1="749.8"
     y1="231"
     x2="709.9"
     y2="231" /><line
     id="XMLID_216_"
     class="st3"
     x1="753.8"
     y1="235.1"
     x2="715.6"
     y2="235.1" /><line
     id="XMLID_217_"
     class="st3"
     x1="758"
     y1="239.6"
     x2="720.8"
     y2="239.6" /><line
     id="XMLID_218_"
     class="st3"
     x1="761.8"
     y1="243.2"
     x2="723.2"
     y2="243.2" /><line
     id="XMLID_219_"
     class="st3"
     x1="765.3"
     y1="247.9"
     x2="728"
     y2="247.9" /><line
     id="XMLID_220_"
     class="st3"
     x1="769.7"
     y1="251"
     x2="723.2"
     y2="251" /><line
     id="XMLID_221_"
     class="st3"
     x1="773.7"
     y1="255"
     x2="731.8"
     y2="255" /><line
     id="XMLID_222_"
     class="st3"
     x1="777.6"
     y1="258.6"
     x2="741.4"
     y2="258.6" /><line
     id="XMLID_223_"
     class="st3"
     x1="782"
     y1="262.7"
     x2="743.7"
     y2="262.7" /><line
     id="XMLID_224_"
     class="st3"
     x1="785.8"
     y1="266.8"
     x2="748.8"
     y2="266.8" /><line
     id="XMLID_225_"
     class="st3"
     x1="789.5"
     y1="270.7"
     x2="752.3"
     y2="270.7" /><line
     id="XMLID_226_"
     class="st3"
     x1="794"
     y1="275"
     x2="753.8"
     y2="275" /><line
     id="XMLID_227_"
     class="st3"
     x1="797.8"
     y1="278.4"
     x2="760"
     y2="278.4" /><line
     id="XMLID_228_"
     class="st3"
     x1="801.3"
     y1="283.3"
     x2="762.8"
     y2="283.3" /><line
     id="XMLID_229_"
     class="st3"
     x1="806.3"
     y1="286.4"
     x2="757.8"
     y2="286.4" /><line
     id="XMLID_230_"
     class="st3"
     x1="810.2"
     y1="290.4"
     x2="771.4"
     y2="290.4" /><line
     id="XMLID_231_"
     class="st3"
     x1="814.1"
     y1="294.8"
     x2="776.6"
     y2="294.8" /><line
     id="XMLID_232_"
     class="st3"
     x1="818.1"
     y1="298.6"
     x2="780.5"
     y2="298.6" /><line
     id="XMLID_233_"
     class="st3"
     x1="822.1"
     y1="302.2"
     x2="783.4"
     y2="302.2" /><line
     id="XMLID_234_"
     class="st3"
     x1="826.1"
     y1="306"
     x2="783.6"
     y2="306" /><line
     id="XMLID_235_"
     class="st3"
     x1="829.9"
     y1="309.5"
     x2="791.3"
     y2="309.5" /><line
     id="XMLID_236_"
     class="st3"
     x1="834"
     y1="313.3"
     x2="796.9"
     y2="313.3" /><line
     id="XMLID_237_"
     class="st3"
     x1="838.6"
     y1="317.6"
     x2="797.8"
     y2="317.6" /><line
     id="XMLID_238_"
     class="st3"
     x1="842.5"
     y1="321.2"
     x2="806.3"
     y2="321.2" /><line
     id="XMLID_239_"
     class="st3"
     x1="846.3"
     y1="326.2"
     x2="808.7"
     y2="326.2" /><line
     id="XMLID_113_"
     class="st3"
     x1="850.4"
     y1="330.4"
     x2="810.2"
     y2="330.4" /><line
     id="XMLID_114_"
     class="st3"
     x1="854.4"
     y1="334.2"
     x2="808.7"
     y2="334.2" /><line
     id="XMLID_115_"
     class="st3"
     x1="858.3"
     y1="338.7"
     x2="808.7"
     y2="338.7" /><line
     id="XMLID_116_"
     class="st3"
     x1="862.1"
     y1="342.8"
     x2="808.7"
     y2="342.8" /><line
     id="XMLID_117_"
     class="st3"
     x1="866.2"
     y1="346.1"
     x2="808.7"
     y2="346.1" /></g><polygon
   id="XMLID_213_"
   class="st1"
   points="600.8,216.5 602.8,215.9 608.8,214 665.1,212.9 792.4,355.9 780.1,356 724.6,357.4   710.9,355.9 " /><g
   id="XMLID_103_"><path
     id="XMLID_20_"
     class="st2"
     d="M608.8,245.3h-31.3V214c5.9,0,11.8,0,17.7,0c4.5,0,9.1,0,13.6,0   C608.8,224.5,608.8,234.9,608.8,245.3z" /><rect
     id="XMLID_16_"
     x="585.2"
     y="221.1"
     class="st0"
     width="31.3"
     height="31.3" /><rect
     id="XMLID_15_"
     x="593.2"
     y="227.9"
     class="st2"
     width="31.3"
     height="31.3" /><rect
     id="XMLID_14_"
     x="600.8"
     y="235.8"
     class="st0"
     width="31.3"
     height="31.3" /><rect
     id="XMLID_13_"
     x="608.7"
     y="243.5"
     class="st2"
     width="31.3"
     height="31.3" /><rect
     id="XMLID_12_"
     x="615.6"
     y="251.4"
     class="st0"
     width="31.3"
     height="31.3" /><rect
     id="XMLID_11_"
     x="624"
     y="258.5"
     class="st2"
     width="31.3"
     height="31.3" /><rect
     id="XMLID_10_"
     x="631.2"
     y="266.4"
     class="st0"
     width="31.3"
     height="31.3" /><rect
     id="XMLID_9_"
     x="639.6"
     y="273.7"
     class="st2"
     width="31.3"
     height="31.3" /><rect
     id="XMLID_8_"
     x="646.3"
     y="281.3"
     class="st0"
     width="31.3"
     height="31.3" /><rect
     id="XMLID_7_"
     x="654.8"
     y="289.3"
     class="st2"
     width="31.3"
     height="31.3" /><rect
     id="XMLID_5_"
     x="662"
     y="297.5"
     class="st0"
     width="31.3"
     height="31.3" /><rect
     id="XMLID_4_"
     x="670.2"
     y="304.9"
     class="st2"
     width="31.3"
     height="31.3" /><rect
     id="XMLID_3_"
     x="678.4"
     y="313.1"
     class="st0"
     width="31.3"
     height="31.3" /><rect
     id="XMLID_2_"
     x="685.8"
     y="319.4"
     class="st2"
     width="31.3"
     height="31.3" /><rect
     id="XMLID_6_"
     x="693.3"
     y="326.1"
     class="st0"
     width="31.3"
     height="31.3" /></g><g
   id="XMLID_195_"><line
     id="XMLID_194_"
     class="st3"
     x1="577.5"
     y1="228.6"
     x2="521.3"
     y2="228.6" /><line
     id="XMLID_196_"
     class="st3"
     x1="585.2"
     y1="235.8"
     x2="534.8"
     y2="235.8" /><line
     id="XMLID_197_"
     class="st3"
     x1="592.9"
     y1="240.9"
     x2="537.3"
     y2="240.9" /><line
     id="XMLID_198_"
     class="st3"
     x1="600.8"
     y1="247.9"
     x2="549.5"
     y2="247.9" /><line
     id="XMLID_199_"
     class="st3"
     x1="608.7"
     y1="255.4"
     x2="565.1"
     y2="255.4" /><line
     id="XMLID_200_"
     class="st3"
     x1="615.6"
     y1="263.4"
     x2="562.3"
     y2="263.4" /><line
     id="XMLID_201_"
     class="st3"
     x1="624"
     y1="271.4"
     x2="581.9"
     y2="271.4" /><line
     id="XMLID_202_"
     class="st3"
     x1="631.2"
     y1="278.4"
     x2="585.2"
     y2="278.4" /><line
     id="XMLID_203_"
     class="st3"
     x1="639.6"
     y1="286.2"
     x2="586.5"
     y2="286.2" /><line
     id="XMLID_204_"
     class="st3"
     x1="646.3"
     y1="294.1"
     x2="593.2"
     y2="294.1" /><line
     id="XMLID_205_"
     class="st3"
     x1="654.8"
     y1="302.2"
     x2="608.7"
     y2="302.2" /><line
     id="XMLID_206_"
     class="st3"
     x1="662"
     y1="309.5"
     x2="619.7"
     y2="309.5" /><line
     id="XMLID_207_"
     class="st3"
     x1="670.4"
     y1="317.6"
     x2="619.7"
     y2="317.6" /><line
     id="XMLID_208_"
     class="st3"
     x1="678.4"
     y1="323.8"
     x2="616.5"
     y2="323.8" /><line
     id="XMLID_209_"
     class="st3"
     x1="685.8"
     y1="332.5"
     x2="619.6"
     y2="332.5" /><line
     id="XMLID_210_"
     class="st3"
     x1="693.3"
     y1="341.8"
     x2="610.5"
     y2="341.8" /></g><polygon
   id="XMLID_193_"
   class="st1"
   points="416,212.4 477.8,214.2 588,359.1 572.1,358.6 505.3,356.8 402.1,214.2 " /><g
   id="XMLID_105_"><rect
     id="XMLID_54_"
     x="364.3"
     y="212.4"
     class="st2"
     width="51.6"
     height="51.6" /><rect
     id="XMLID_53_"
     x="377.8"
     y="227.1"
     class="st0"
     width="51.6"
     height="51.6" /><rect
     id="XMLID_52_"
     x="388.2"
     y="239.9"
     class="st2"
     width="51.6"
     height="51.6" /><rect
     id="XMLID_51_"
     x="402.1"
     y="252.2"
     class="st0"
     width="51.6"
     height="51.6" /><rect
     id="XMLID_50_"
     x="414"
     y="265.5"
     class="st2"
     width="51.6"
     height="51.6" /><rect
     id="XMLID_49_"
     x="427.9"
     y="279.4"
     class="st0"
     width="51.6"
     height="51.6" /><rect
     id="XMLID_48_"
     x="439.8"
     y="293.4"
     class="st2"
     width="51.6"
     height="51.6" /><rect
     id="XMLID_43_"
     x="453.7"
     y="305.2"
     class="st0"
     width="51.6"
     height="51.6" /></g><g
   id="XMLID_192_"><line
     id="XMLID_139_"
     class="st3"
     x1="364.6"
     y1="236.3"
     x2="298.4"
     y2="236.3" /><line
     id="XMLID_185_"
     class="st3"
     x1="377.8"
     y1="249.9"
     x2="307.8"
     y2="250.4" /><line
     id="XMLID_186_"
     class="st3"
     x1="388.2"
     y1="261.6"
     x2="336.5"
     y2="261.1" /><line
     id="XMLID_187_"
     class="st3"
     x1="402.1"
     y1="275.2"
     x2="345.9"
     y2="275.2" /><line
     id="XMLID_188_"
     class="st3"
     x1="414"
     y1="288.8"
     x2="355.7"
     y2="288.8" /><line
     id="XMLID_189_"
     class="st3"
     x1="427.9"
     y1="300.8"
     x2="358.1"
     y2="300.8" /><line
     id="XMLID_190_"
     class="st3"
     x1="439.8"
     y1="314.1"
     x2="352.7"
     y2="314.1" /><line
     id="XMLID_191_"
     class="st3"
     x1="453.7"
     y1="333.1"
     x2="352.7"
     y2="333.1" /></g><polygon
   id="XMLID_184_"
   class="st1"
   points="194.7,242.9 226.4,213.8 305,358.6 292.6,359.1 194.7,335.8 " /><line
   id="XMLID_24_"
   class="st4"
   x1="214.6"
   y1="179.9"
   x2="785.4"
   y2="179.9" /><line
   id="XMLID_25_"
   class="st3"
   x1="214.6"
   y1="180.1"
   x2="205.9"
   y2="185.2" /><line
   id="XMLID_26_"
   class="st3"
   x1="784.8"
   y1="179.9"
   x2="792.4"
   y2="187.4" /><text
   id="XMLID_27_"
   transform="matrix(0.9235,0,0,1,405.8546,172.1188)"
   class="st5 st6"
   style="font-size:27.73110008px;line-height:0%;font-family:OCRAStd">CNN</text>

<text
   id="XMLID_28_"
   transform="matrix(0.9235,0,0,1,467.9583,172.1191)"
   class="st5 st7"
   style="font-size:14px;line-height:0%;font-family:OCRAStd">\tiny feature extractie</text>

<line
   id="XMLID_36_"
   class="st3"
   x1="655.8009"
   y1="392.20001"
   x2="659.00098"
   y2="397"
   style="fill:none;stroke:#000000;stroke-miterlimit:10" /><g
   id="XMLID_106_"><rect
     id="XMLID_42_"
     x="226.4"
     y="213.8"
     class="st0"
     width="81"
     height="81" /><rect
     id="XMLID_33_"
     x="235.8"
     y="223.1"
     class="st8"
     width="81"
     height="81" /><rect
     id="XMLID_23_"
     x="245.6"
     y="233.7"
     class="st0"
     width="81"
     height="81" /><rect
     id="XMLID_22_"
     x="254.4"
     y="242.3"
     class="st8"
     width="81"
     height="81" /><rect
     id="XMLID_19_"
     x="264.5"
     y="249.7"
     class="st0"
     width="81"
     height="81" /><rect
     id="XMLID_18_"
     x="273.9"
     y="258.9"
     class="st8"
     width="81"
     height="81" /><rect
     id="XMLID_17_"
     x="283.7"
     y="269.6"
     class="st0"
     width="81"
     height="81" /><rect
     id="XMLID_21_"
     x="292.6"
     y="278.1"
     class="st8"
     width="81"
     height="81" /></g><g
   id="XMLID_104_"><rect
     id="XMLID_70_"
     x="477.8"
     y="214.2"
     class="st8"
     width="53.3"
     height="53.3" /><rect
     id="XMLID_69_"
     x="484"
     y="220.3"
     class="st0"
     width="53.3"
     height="53.3" /><rect
     id="XMLID_68_"
     x="490.5"
     y="227.3"
     class="st8"
     width="53.3"
     height="53.3" /><rect
     id="XMLID_67_"
     x="496.3"
     y="232.9"
     class="st0"
     width="53.3"
     height="53.3" /><rect
     id="XMLID_66_"
     x="502.9"
     y="237.8"
     class="st8"
     width="53.3"
     height="53.3" /><rect
     id="XMLID_65_"
     x="509"
     y="243.9"
     class="st0"
     width="53.3"
     height="53.3" /><rect
     id="XMLID_64_"
     x="515.5"
     y="250.9"
     class="st8"
     width="53.3"
     height="53.3" /><rect
     id="XMLID_63_"
     x="521.3"
     y="256.5"
     class="st0"
     width="53.3"
     height="53.3" /><rect
     id="XMLID_62_"
     x="528.6"
     y="263.1"
     class="st8"
     width="53.3"
     height="53.3" /><rect
     id="XMLID_61_"
     x="534.8"
     y="269.2"
     class="st0"
     width="53.3"
     height="53.3" /><rect
     id="XMLID_60_"
     x="541.3"
     y="276.2"
     class="st8"
     width="53.3"
     height="53.3" /><rect
     id="XMLID_59_"
     x="547.1"
     y="281.8"
     class="st0"
     width="53.3"
     height="53.3" /><rect
     id="XMLID_58_"
     x="553.7"
     y="286.7"
     class="st8"
     width="53.3"
     height="53.3" /><rect
     id="XMLID_57_"
     x="559.8"
     y="292.8"
     class="st0"
     width="53.3"
     height="53.3" /><rect
     id="XMLID_56_"
     x="566.3"
     y="299.8"
     class="st8"
     width="53.3"
     height="53.3" /><rect
     id="XMLID_55_"
     x="572.1"
     y="305.4"
     class="st0"
     width="53.3"
     height="53.3" /></g><g
   id="XMLID_102_"><rect
     id="XMLID_101_"
     x="665.1"
     y="212.9"
     class="st8"
     width="31.5"
     height="31.5" /><rect
     id="XMLID_100_"
     x="668.8"
     y="216.5"
     class="st0"
     width="31.5"
     height="31.5" /><rect
     id="XMLID_99_"
     x="672.6"
     y="220.6"
     class="st8"
     width="31.5"
     height="31.5" /><rect
     id="XMLID_98_"
     x="676"
     y="223.9"
     class="st0"
     width="31.5"
     height="31.5" /><rect
     id="XMLID_97_"
     x="679.9"
     y="226.8"
     class="st8"
     width="31.5"
     height="31.5" /><rect
     id="XMLID_96_"
     x="683.6"
     y="230.4"
     class="st0"
     width="31.5"
     height="31.5" /><rect
     id="XMLID_95_"
     x="687.4"
     y="234.5"
     class="st8"
     width="31.5"
     height="31.5" /><rect
     id="XMLID_94_"
     x="690.8"
     y="237.8"
     class="st0"
     width="31.5"
     height="31.5" /><rect
     id="XMLID_93_"
     x="695.1"
     y="241.7"
     class="st8"
     width="31.5"
     height="31.5" /><rect
     id="XMLID_92_"
     x="698.8"
     y="245.3"
     class="st0"
     width="31.5"
     height="31.5" /><rect
     id="XMLID_91_"
     x="702.6"
     y="249.5"
     class="st8"
     width="31.5"
     height="31.5" /><rect
     id="XMLID_90_"
     x="706"
     y="252.8"
     class="st0"
     width="31.5"
     height="31.5" /><rect
     id="XMLID_89_"
     x="709.9"
     y="255.6"
     class="st8"
     width="31.5"
     height="31.5" /><rect
     id="XMLID_88_"
     x="713.6"
     y="259.2"
     class="st0"
     width="31.5"
     height="31.5" /><rect
     id="XMLID_87_"
     x="717.4"
     y="263.4"
     class="st8"
     width="31.5"
     height="31.5" /><rect
     id="XMLID_86_"
     x="720.8"
     y="266.7"
     class="st0"
     width="31.5"
     height="31.5" /><rect
     id="XMLID_85_"
     x="724.4"
     y="270.7"
     class="st8"
     width="31.5"
     height="31.5" /><rect
     id="XMLID_84_"
     x="728"
     y="274.3"
     class="st0"
     width="31.5"
     height="31.5" /><rect
     id="XMLID_83_"
     x="731.8"
     y="278.4"
     class="st8"
     width="31.5"
     height="31.5" /><rect
     id="XMLID_82_"
     x="735.3"
     y="281.7"
     class="st0"
     width="31.5"
     height="31.5" /><rect
     id="XMLID_81_"
     x="739.2"
     y="284.6"
     class="st8"
     width="31.5"
     height="31.5" /><rect
     id="XMLID_80_"
     x="742.8"
     y="288.2"
     class="st0"
     width="31.5"
     height="31.5" /><rect
     id="XMLID_79_"
     x="746.6"
     y="292.3"
     class="st8"
     width="31.5"
     height="31.5" /><rect
     id="XMLID_78_"
     x="750.1"
     y="295.6"
     class="st0"
     width="31.5"
     height="31.5" /><rect
     id="XMLID_77_"
     x="754.4"
     y="299.6"
     class="st8"
     width="31.5"
     height="31.5" /><rect
     id="XMLID_76_"
     x="758"
     y="303.2"
     class="st0"
     width="31.5"
     height="31.5" /><rect
     id="XMLID_75_"
     x="761.8"
     y="307.3"
     class="st8"
     width="31.5"
     height="31.5" /><rect
     id="XMLID_74_"
     x="765.3"
     y="310.6"
     class="st0"
     width="31.5"
     height="31.5" /><rect
     id="XMLID_73_"
     x="769.2"
     y="313.5"
     class="st8"
     width="31.5"
     height="31.5" /><rect
     id="XMLID_72_"
     x="772.8"
     y="317.1"
     class="st0"
     width="31.5"
     height="31.5" /><rect
     id="XMLID_71_"
     x="776.6"
     y="321.2"
     class="st8"
     width="31.5"
     height="31.5" /><rect
     id="XMLID_30_"
     x="780.1"
     y="324.5"
     class="st0"
     width="31.5"
     height="31.5" /></g><rect
   id="XMLID_112_"
   x="101.8"
   y="242.9"
   class="st9"
   width="92.9"
   height="92.9" /><path
   id="XMLID_211_"
   class="st2"
   d="M606.4,187.4" /><rect
   id="XMLID_32_"
   x="912.3"
   y="171.1"
   transform="matrix(0.7443 -0.6679 0.6679 0.7443 49.4555 683.5897)"
   class="st9"
   width="10.2"
   height="212.2" /><rect
   id="XMLID_38_"
   x="974.4"
   y="199.8"
   transform="matrix(0.7443 -0.6679 0.6679 0.7443 76.4125 720.7872)"
   class="st9"
   width="10.2"
   height="121.6" /><rect
   id="XMLID_39_"
   x="1033.5"
   y="209.7"
   transform="matrix(0.7443 -0.6679 0.6679 0.7443 98.0735 757.5383)"
   class="st9"
   width="9.5"
   height="82" /><polygon
   id="XMLID_41_"
   class="st1"
   points="850.4,194.8 935.1,218.8 1016.3,309.3 992.1,352.8 " /><polygon
   id="XMLID_45_"
   class="st1"
   points="942.7,212 1007.4,223.4 1062.1,284.4 1023.9,302.4 " /><line
   id="XMLID_253_"
   class="st4"
   x1="808.4"
   y1="179.9"
   x2="1018.6"
   y2="179.9" /><line
   id="XMLID_252_"
   class="st3"
   x1="809.2"
   y1="179.9"
   x2="800.9"
   y2="187.4" /><line
   id="XMLID_251_"
   class="st3"
   x1="1018.7"
   y1="179.9"
   x2="1027.3"
   y2="187.4" /><text
   id="XMLID_250_"
   transform="matrix(0.9235,0,0,1,819.0963,172.1186)"
   class="st5 st6"
   style="font-size:27.73110008px;line-height:0%;font-family:OCRAStd">ANN</text>

<text
   id="XMLID_47_"
   transform="matrix(0.9235,0,0,1,880.8167,172.119)"
   class="st5 st7"
   style="font-size:14px;line-height:0%;font-family:OCRAStd">\tiny classificatie</text>

<path
   id="XMLID_46_"
   class="st2"
   d="M982.2,187.4" /><line
   id="XMLID_254_"
   class="st4"
   x1="1038.3"
   y1="212.9"
   x2="1086.3"
   y2="268.5" /><line
   id="XMLID_255_"
   class="st4"
   x1="1086.3"
   y1="268.5"
   x2="1086.3"
   y2="276.2" /><line
   id="XMLID_256_"
   class="st3"
   x1="1038.3"
   y1="212.9"
   x2="1027.3"
   y2="211.5" /><line
   id="XMLID_260_"
   class="st3"
   x1="78.7"
   y1="215.4"
   x2="101.8"
   y2="242.9" /><line
   id="XMLID_261_"
   class="st3"
   x1="78.7"
   y1="179.9"
   x2="179.8"
   y2="179.9" /><line
   id="XMLID_263_"
   class="st3"
   x1="78.7"
   y1="179.9"
   x2="71.9"
   y2="185.2" /><line
   id="XMLID_264_"
   class="st3"
   x1="179.8"
   y1="179.9"
   x2="185.7"
   y2="185.2" /><text
   id="XMLID_265_"
   transform="scale(0.96098904,1.0405946)"
   class="st5 st11"
   x="133.8475"
   y="147.36536"
   style="font-size:17.29780388px;line-height:0%;font-family:OCRAStd;text-align:center;text-anchor:middle">\tiny Input</text>

<text
   id="XMLID_266_"
   class="st5 st7"
   x="129.38298"
   y="172.11909"
   style="font-size:14px;line-height:0%;font-family:OCRAStd;text-align:center;text-anchor:middle">\tiny 12x64x64</text>

<text
   xml:space="preserve"
   style="font-style:normal;font-weight:normal;line-height:0%;font-family:sans-serif;text-align:center;letter-spacing:0px;word-spacing:0px;writing-mode:lr-tb;text-anchor:middle;fill:#000000;fill-opacity:1;stroke:none"
   x="414.3175"
   y="378.26947"
   id="text4367"><tspan
     sodipodi:role="line"
     id="tspan4369"
     x="414.3175"
     y="378.26947"
     style="font-size:11px;line-height:1.25;font-family:sans-serif">\tiny Max-pooling</tspan></text>

<text
   xml:space="preserve"
   style="font-style:normal;font-weight:normal;line-height:0%;font-family:sans-serif;text-align:center;letter-spacing:0px;word-spacing:0px;writing-mode:tb-rl;text-anchor:middle;fill:#000000;fill-opacity:1;stroke:none"
   x="414.37122"
   y="397.27734"
   id="text4371"><tspan
     sodipodi:role="line"
     id="tspan4373"
     x="414.37122"
     y="397.27734"
     style="font-size:11px;line-height:1.25;font-family:sans-serif;writing-mode:lr-tb">\tiny 2x2</tspan></text>

<text
   xml:space="preserve"
   style="font-style:normal;font-weight:normal;line-height:0%;font-family:sans-serif;text-align:center;letter-spacing:0px;word-spacing:0px;writing-mode:lr-tb;text-anchor:middle;fill:#000000;fill-opacity:1;stroke:none"
   x="873.73956"
   y="-663.93439"
   id="text4394"
   transform="rotate(49.851721)"><tspan
     sodipodi:role="line"
     id="tspan4396"
     x="873.73956"
     y="-663.93439"
     style="font-size:11px;line-height:1.25;font-family:sans-serif">\tiny 0,1,...,18,19</tspan></text>

<text
   xml:space="preserve"
   style="font-style:normal;font-weight:normal;line-height:0%;font-family:sans-serif;text-align:center;letter-spacing:0px;word-spacing:0px;writing-mode:lr-tb;text-anchor:middle;fill:#000000;fill-opacity:1;stroke:none"
   x="244.18462"
   y="378.26947"
   id="text4367-2"><tspan
     sodipodi:role="line"
     id="tspan4369-8"
     x="244.18462"
     y="378.26947"
     style="font-size:11px;line-height:1.25;font-family:sans-serif">\tiny Convolutie</tspan></text>
<text
   xml:space="preserve"
   style="font-style:normal;font-weight:normal;line-height:0%;font-family:sans-serif;text-align:center;letter-spacing:0px;word-spacing:0px;writing-mode:lr-tb;text-anchor:middle;fill:#000000;fill-opacity:1;stroke:none"
   x="541.30786"
   y="378.26947"
   id="text4367-2-6"><tspan
     sodipodi:role="line"
     id="tspan4369-8-5"
     x="541.30786"
     y="378.26947"
     style="font-size:11px;line-height:1.25;font-family:sans-serif">\tiny Convolutie</tspan></text>
<text
   xml:space="preserve"
   style="font-style:normal;font-weight:normal;line-height:0%;font-family:sans-serif;text-align:center;letter-spacing:0px;word-spacing:0px;writing-mode:lr-tb;text-anchor:middle;fill:#000000;fill-opacity:1;stroke:none"
   x="755.16809"
   y="378.26947"
   id="text4367-2-3"><tspan
     sodipodi:role="line"
     id="tspan4369-8-52"
     x="755.16809"
     y="378.26947"
     style="font-size:11px;line-height:1.25;font-family:sans-serif">\tiny Convolutie</tspan></text>
<text
   xml:space="preserve"
   style="font-style:normal;font-weight:normal;line-height:0%;font-family:sans-serif;text-align:center;letter-spacing:0px;word-spacing:0px;writing-mode:lr-tb;text-anchor:middle;fill:#000000;fill-opacity:1;stroke:none"
   x="657.90045"
   y="378.26947"
   id="text4367-6"><tspan
     sodipodi:role="line"
     id="tspan4369-4"
     x="657.90045"
     y="378.26947"
     style="font-size:11px;line-height:1.25;font-family:sans-serif">\tiny Max-pooling</tspan></text>
<text
   xml:space="preserve"
   style="font-style:normal;font-weight:normal;line-height:0%;font-family:sans-serif;text-align:center;letter-spacing:0px;word-spacing:0px;writing-mode:lr-tb;text-anchor:middle;fill:#000000;fill-opacity:1;stroke:none"
   x="844.12042"
   y="378.26947"
   id="text4367-1"><tspan
     sodipodi:role="line"
     id="tspan4369-9"
     x="844.12042"
     y="378.26947"
     style="font-size:11px;line-height:1.25;font-family:sans-serif">\tiny Max-pooling</tspan></text>
<text
   xml:space="preserve"
   style="font-style:normal;font-weight:normal;line-height:0%;font-family:sans-serif;text-align:center;letter-spacing:0px;word-spacing:0px;writing-mode:tb-rl;text-anchor:middle;fill:#000000;fill-opacity:1;stroke:none"
   x="244.37529"
   y="397.27734"
   id="text4371-0"><tspan
     sodipodi:role="line"
     id="tspan4373-4"
     x="244.37529"
     y="397.27734"
     style="font-size:11px;line-height:1.25;font-family:sans-serif;writing-mode:lr-tb">\tiny 8x(5x5)</tspan></text>
<text
   xml:space="preserve"
   style="font-style:normal;font-weight:normal;line-height:0%;font-family:sans-serif;text-align:center;letter-spacing:0px;word-spacing:0px;writing-mode:tb-rl;text-anchor:middle;fill:#000000;fill-opacity:1;stroke:none"
   x="541.49854"
   y="397.27734"
   id="text4371-0-5"><tspan
     sodipodi:role="line"
     id="tspan4373-4-2"
     x="541.49854"
     y="397.27734"
     style="font-size:11px;line-height:1.25;font-family:sans-serif;writing-mode:lr-tb">\tiny 16(5x5)</tspan></text>
<text
   xml:space="preserve"
   style="font-style:normal;font-weight:normal;line-height:0%;font-family:sans-serif;text-align:center;letter-spacing:0px;word-spacing:0px;writing-mode:tb-rl;text-anchor:middle;fill:#000000;fill-opacity:1;stroke:none"
   x="755.18689"
   y="397.27734"
   id="text4371-0-5-8"><tspan
     sodipodi:role="line"
     id="tspan4373-4-2-4"
     x="755.18689"
     y="397.27734"
     style="font-size:11px;line-height:1.25;font-family:sans-serif;writing-mode:lr-tb">\tiny 32x(4x4)</tspan></text>
<text
   xml:space="preserve"
   style="font-style:normal;font-weight:normal;line-height:0%;font-family:sans-serif;text-align:center;letter-spacing:0px;word-spacing:0px;writing-mode:tb-rl;text-anchor:middle;fill:#000000;fill-opacity:1;stroke:none"
   x="657.95416"
   y="397.27734"
   id="text4371-8"><tspan
     sodipodi:role="line"
     id="tspan4373-42"
     x="657.95416"
     y="397.27734"
     style="font-size:11px;line-height:1.25;font-family:sans-serif;writing-mode:lr-tb">\tiny 2x2</tspan></text>
<text
   xml:space="preserve"
   style="font-style:normal;font-weight:normal;line-height:0%;font-family:sans-serif;text-align:center;letter-spacing:0px;word-spacing:0px;writing-mode:tb-rl;text-anchor:middle;fill:#000000;fill-opacity:1;stroke:none"
   x="844.17413"
   y="397.27734"
   id="text4371-86"><tspan
     sodipodi:role="line"
     id="tspan4373-6"
     x="844.17413"
     y="397.27734"
     style="font-size:11px;line-height:1.25;font-family:sans-serif;writing-mode:lr-tb">\tiny 2x2</tspan></text>
</svg>